<svg width="35" height="33" viewBox="0 0 35 33" fill="none" xmlns="http://www.w3.org/2000/svg">
<g clip-path="url(#clip0_12_789)">
<path d="M5.34288 12.4254L15.2948 19.0864C16.1819 19.6779 16.6256 19.9735 17.105 20.0885C17.5286 20.19 17.9703 20.19 18.3941 20.0885C18.8735 19.9735 19.3172 19.6779 20.2043 19.0864L30.1562 12.4254M15.3964 4.22298L7.37553 9.26025C6.61916 9.73525 6.24099 9.97275 5.96668 10.2938C5.72391 10.578 5.54124 10.9084 5.42971 11.2651C5.30371 11.6682 5.30371 12.1147 5.30371 13.0079V21.8293C5.30371 23.3783 5.30371 24.1529 5.60517 24.7445C5.87034 25.2649 6.29346 25.6881 6.81389 25.9532C7.40554 26.2546 8.18004 26.2546 9.72907 26.2546H25.771C27.32 26.2546 28.0946 26.2546 28.6862 25.9532C29.2066 25.6881 29.6298 25.2649 29.8949 24.7445C30.1964 24.1529 30.1964 23.3783 30.1964 21.8293V13.0079C30.1964 12.1147 30.1964 11.6682 30.0704 11.2651C29.9588 10.9084 29.7762 10.578 29.5334 10.2938C29.2591 9.97275 28.8809 9.73525 28.1246 9.26025L20.1036 4.22298C19.25 3.68692 18.8232 3.41889 18.3653 3.31441C17.9602 3.22202 17.5398 3.22202 17.1348 3.31441C16.6769 3.41889 16.2501 3.68692 15.3964 4.22298Z" stroke="white" stroke-width="2" stroke-linecap="round" stroke-linejoin="round"/>
</g>
<defs>
<clipPath id="clip0_12_789">
<rect width="35" height="33" fill="white"/>
</clipPath>
</defs>
</svg>
