<svg width="35" height="33" viewBox="0 0 35 33" fill="none" xmlns="http://www.w3.org/2000/svg">
<path fill-rule="evenodd" clip-rule="evenodd" d="M30.1964 28.5H25.3964V20.1012C25.3964 17.7972 24.38 16.5117 22.5572 16.5117C20.5736 16.5117 19.3964 17.8512 19.3964 20.1012V28.5H14.5964V12.9H19.3964V14.6543C19.3964 14.6543 20.9023 12.0117 24.2959 12.0117C27.6907 12.0117 30.1964 14.0833 30.1964 18.3697V28.5ZM9.12675 10.4051C7.50795 10.4051 6.19635 9.08275 6.19635 7.45195C6.19635 5.82235 7.50795 4.5 9.12675 4.5C10.7444 4.5 12.0559 5.82235 12.0559 7.45195C12.0571 9.08275 10.7444 10.4051 9.12675 10.4051ZM6.19635 28.5H12.1964V12.9H6.19635V28.5Z" fill="white"/>
</svg>
