<svg width="35" height="33" viewBox="0 0 35 33" fill="none" xmlns="http://www.w3.org/2000/svg">
<path d="M5.34288 16.1754L15.2948 22.8364C16.1819 23.4279 16.6256 23.7235 17.105 23.8385C17.5286 23.94 17.9703 23.94 18.3941 23.8385C18.8735 23.7235 19.3172 23.4279 20.2043 22.8364L30.1562 16.1754M15.3964 7.97298L7.37553 13.0103C6.61916 13.4852 6.24099 13.7228 5.96668 14.0438C5.72391 14.328 5.54124 14.6584 5.42971 15.0151C5.30371 15.4182 5.30371 15.8647 5.30371 16.7579V25.5793C5.30371 27.1283 5.30371 27.9029 5.60517 28.4945C5.87034 29.0149 6.29346 29.4381 6.81389 29.7032C7.40554 30.0046 8.18004 30.0046 9.72907 30.0046H25.771C27.32 30.0046 28.0946 30.0046 28.6862 29.7032C29.2066 29.4381 29.6298 29.0149 29.8949 28.4945C30.1964 27.9029 30.1964 27.1283 30.1964 25.5793V16.7579C30.1964 15.8647 30.1964 15.4182 30.0704 15.0151C29.9588 14.6584 29.7762 14.328 29.5334 14.0438C29.2591 13.7228 28.8809 13.4852 28.1246 13.0103L20.1036 7.97298C19.25 7.43692 18.8232 7.16889 18.3653 7.06441C17.9602 6.97202 17.5398 6.97202 17.1348 7.06441C16.6769 7.16889 16.2501 7.43692 15.3964 7.97298Z" stroke="white" stroke-width="2" stroke-linecap="round" stroke-linejoin="round"/>
</svg>
