<svg width="35" height="34" viewBox="0 0 35 34" fill="none" xmlns="http://www.w3.org/2000/svg">
<path d="M5.34288 18.7379L15.2948 25.3989C16.1819 25.9904 16.6256 26.286 17.105 26.401C17.5286 26.5025 17.9703 26.5025 18.3941 26.401C18.8735 26.286 19.3172 25.9904 20.2043 25.3989L30.1562 18.7379M15.3964 10.5355L7.37553 15.5728C6.61916 16.0477 6.24099 16.2853 5.96668 16.6063C5.72391 16.8905 5.54124 17.2209 5.42971 17.5776C5.30371 17.9807 5.30371 18.4272 5.30371 19.3204V28.1418C5.30371 29.6908 5.30371 30.4654 5.60517 31.057C5.87034 31.5774 6.29346 32.0006 6.81389 32.2657C7.40554 32.5671 8.18004 32.5671 9.72907 32.5671H25.771C27.32 32.5671 28.0946 32.5671 28.6862 32.2657C29.2066 32.0006 29.6298 31.5774 29.8949 31.057C30.1964 30.4654 30.1964 29.6908 30.1964 28.1418V19.3204C30.1964 18.4272 30.1964 17.9807 30.0704 17.5776C29.9588 17.2209 29.7762 16.8905 29.5334 16.6063C29.2591 16.2853 28.8809 16.0477 28.1246 15.5728L20.1036 10.5355C19.25 9.99942 18.8232 9.73139 18.3653 9.62691C17.9602 9.53452 17.5398 9.53452 17.1348 9.62691C16.6769 9.73139 16.2501 9.99942 15.3964 10.5355Z" stroke="white" stroke-width="2" stroke-linecap="round" stroke-linejoin="round"/>
</svg>
