<?xml version="1.0" encoding="UTF-8"?>
<svg id="Layer_1" data-name="Layer 1" xmlns="http://www.w3.org/2000/svg" version="1.1" viewBox="0 0 834.03 346.45">
  <defs>
    <style>
      .cls-1 {
        fill: #000;
      }

      .cls-1, .cls-2 {
        stroke-width: 0px;
      }

      .cls-2 {
        fill: #fff;
      }
    </style>
  </defs>
  <path class="cls-2" d="M178.25,186.73c3.84-4.99,6.91-8.86,9.85-12.83,14.86-20.08,29.89-40.05,44.43-60.36,5.61-7.83,10.37-16.31,15.05-24.75,4.63-8.33,3.11-15.73-3.3-19.23-6.15-3.35-12.14-.83-17.23,7.16-4.11,6.46-8.03,13.07-12.51,19.28-19.11,26.48-37.76,53.32-57.8,79.09-15.93,20.48-33.22,39.96-50.74,59.12-6.85,7.49-15.45,13.81-24.23,19.04-14.62,8.71-29.79,6.11-42.13-5.68-11.26-10.76-16.25-24.12-16.17-39.52.26-51.33,18.11-96.43,49.2-136.58,4.81-6.21,11.36-11.19,17.6-16.12,4.07-3.21,9.2-7.37,14.43-4.48,5.08,2.81,4.5,9.3,4.46,14.52-.16,19.84-3.27,39.14-11.26,57.48-2.15,4.94-4.2,8.94-10.6,10.48-8.06,1.94-10.09,10.87-5.15,17.71,6.19,8.58,18.17,9.55,25.03,1.49,3.62-4.26,6.54-9.28,9.01-14.33,11.81-24.13,16.84-49.8,15.86-76.54-.24-6.51-1.88-13.28-4.35-19.32-4.94-12.09-16.55-18.15-29.29-15.23-6.69,1.53-13.75,3.9-19.19,7.89-9.05,6.64-17.7,14.2-25.09,22.63-7.19,8.2-13.04,17.7-18.69,27.1C13.42,121.46,1.19,161.2.04,204.13c-.67,25.01,7.25,46.75,26.81,62.99,19.19,15.92,40.63,19.31,63.34,7.98,7.09-3.54,13.4-8.64,20.06-13.04,2.11-1.4,4.2-2.83,6.17-4.16,9.88,9.42,14.79,9.68,24.61,1.64,2.83-2.32,5.5-4.84,8.16-7.37,3.28-3.11,6.46-6.33,11.07-10.86.45,4.3.58,6.49.92,8.65,1.88,11.84,11.72,16.92,22.11,10.93,4.55-2.62,8.35-6.56,12.44-9.95,2.69-2.23,5.3-4.57,8.28-7.16,6.47,19.5,16.41,23.66,33.92,14.8,6.22-3.15,12.07-7.08,17.86-10.98,13.11-8.85,27.23-15.49,42.48-19.56,10.81-2.88,21.45-6.96,33.1-2.16,5.39,2.22,10.96-1.31,13.28-6.23,2.47-5.23,1.06-11.62-4.29-14.94-3.55-2.21-7.89-3.8-12.03-4.24-5.22-.56-10.68-.15-15.89.69-26.39,4.25-50.63,13.98-72.6,29.29-3.06,2.13-6.42,3.85-10.45,6.24-.49-3.68-.74-5.62-1.02-7.55-2.56-17.59-13.43-22.44-28.24-12.57-3.12,2.08-6.16,4.28-10.94,7.62,1.19-3.99,1.63-5.87,2.31-7.65,1.42-3.74,3.06-7.39,4.45-11.14,4.6-12.42-.83-19.53-13.93-18.33-.61.06-1.24-.1-3.75-.33Z"/>
  <path class="cls-1" d="M517.52,215.09c3.32-2.67,5.48-4.05,7.18-5.85,6.85-7.28,13.56-14.68,20.31-22.06,1.57-1.72,2.96-3.63,4.64-5.24,5.39-5.18,11.33-6.07,16.21-2.58,4.57,3.26,5.83,8.83,3.33,15.29-.72,1.86-1.81,3.56-2.61,5.39-5.58,12.76-11.7,25.32-14.79,40.21,2.83-.6,5.03-.72,6.94-1.54,7.96-3.41,15.9-6.89,23.72-10.6,7.18-3.41,13.55-7.27,18.18-14.66,4.83-7.7,13.62-11.57,22.54-13.76,5.07-1.24,9.75-.07,13.9,3.64,1.99,1.78,4.89,3.24,7.52,3.51,13.09,1.35,17.32,7.44,13.61,20.36-.54,1.89-1.09,3.77-2.02,7.02,5.3-.63,9.84-.86,14.25-1.75,25.79-5.22,51.47-11.01,77.34-15.79,22.01-4.06,44.3-5.7,66.68-3.13,4.26.49,8.65,1.22,12.58,2.83,5.64,2.31,8,7.74,6.62,13.04-1.28,4.9-5.36,7.87-11.24,8.15-.99.05-2.01.03-2.99-.12-32.61-5-64.4.75-96.12,7.36-18.26,3.81-36.47,7.87-54.79,11.39-5.83,1.12-11.95,1.44-17.88,1.12-13-.7-17.83-5.94-20.74-21.92-6.11-.72-12.3-.13-17.83,3-20.66,11.69-42.09,21.6-64.68,28.89-4.07,1.31-5.74,4.01-6.89,7.71-2.58,8.27-5.09,16.57-8.13,24.67-2.45,6.52-5.06,13.13-8.69,19.03-3.08,5-7.13,9.81-11.78,13.34-15.88,12.05-33.09,6.6-39.89-12.11-6.31-17.39-1.05-36.26,13.95-49.75,8.83-7.94,19.26-13.18,30.45-16.72,6.7-2.12,9.76-6.12,9.74-14.18-12.66,5.84-24.74,8.92-33.4-5.57-1.52.4-2.88.48-3.95,1.08-18.18,10.2-37.92,11.94-58.16,10.6-14.33-.95-20-11.32-12.71-23.67,5.92-10.03,12.87-19.45,18.86-29.45,4.27-7.12,7.95-14.63,11.4-22.19,1.57-3.43,1.95-7.41,2.99-11.61-10.34-2.87-18.93-.6-26.89,3.6-2.5,1.32-4.11,5.04-5.33,7.98-5.33,12.94-10.25,26.04-15.53,39-10.97,26.9-23.75,52.92-39.74,77.2-5.64,8.56-12,16.98-19.47,23.91-15.22,14.11-33.28,7.71-36.73-12.82-1.18-7.04-.69-14.62.48-21.71,1.08-6.58,6.79-10.03,12.31-9.28,5.69.77,9.34,5.29,9.6,12.13.13,3.56.02,7.12.02,11.43,5.05-1.4,7.07-5.11,8.9-8.29,11.59-20.2,23.65-40.19,34.05-61.01,8.59-17.2,15.09-35.44,22.94-54.24-3.46-.53-5.55-.96-7.66-1.16-3.64-.34-7.35-.24-10.94-.82-25.79-4.16-36.35-19.69-33.09-49.74.67-6.14,5.46-9.71,10.95-9.65,5.44.06,9.77,3.81,10.74,9.9.83,5.25,1.06,10.59,1.68,15.88.62,5.28,3.82,8.27,8.83,9.61,8.62,2.31,17.11,1.7,25.65-.6,4.65-1.25,5.79-5.05,7.4-8.69,6.88-15.54,13.2-31.35,20.85-46.49,7.34-14.54,15.44-28.8,24.43-42.37,5.24-7.91,12.11-15.23,19.63-21.01,13.26-10.2,27.08-4.6,31.14,11.69,2.8,11.24,2.31,22.43-1.24,33.52-7.39,23.07-20.73,42.34-37.66,59.34-2.35,2.36-4.76,4.65-7.12,6.99-.22.22-.3.58-.64,1.29.38.53.75,1.44,1.42,1.91,12.6,8.76,17.46,19.83,12.04,34.52-5.03,13.64-12.5,26.39-19.06,39.45-1.9,3.77-4.37,7.25-7.23,11.92,3.17.22,5.01.62,6.79.42,20.09-2.28,35.88-11.6,46.79-28.81,1.96-3.1,3.79-6.3,5.99-9.22,4.83-6.4,10.94-7.99,16.43-4.56,5.41,3.38,6.91,9.67,3.63,16.8-2.08,4.53-4.69,8.82-6.92,13.29-.52,1.05-.5,2.37-1.05,5.32ZM483.75,46.37c-.71-.25-1.43-.51-2.14-.76-6.6,5.83-11.01,13.48-15.47,20.99-4.57,7.69-8.86,15.55-12.91,23.52-3.86,7.61-8.16,15.1-9.5,23.79,18.6-15.46,32.44-34,39.09-57.32.92-3.23.65-6.81.93-10.22ZM495.4,314.04c9.62-5.32,17.65-21.39,17.09-33.32-16.93,7.23-23.24,19.09-17.09,33.32Z"/>
  <path class="cls-1" d="M178.25,186.73c2.51.23,3.14.39,3.75.33,13.1-1.2,18.53,5.9,13.93,18.33-1.39,3.75-3.03,7.4-4.45,11.14-.68,1.78-1.12,3.65-2.31,7.65,4.78-3.34,7.82-5.54,10.94-7.62,14.81-9.87,25.68-5.02,28.24,12.57.28,1.94.52,3.88,1.02,7.55,4.03-2.39,7.39-4.11,10.45-6.24,21.97-15.31,46.21-25.04,72.6-29.29,5.22-.84,10.67-1.25,15.89-.69,4.14.44,8.48,2.04,12.03,4.24,5.36,3.32,6.76,9.71,4.29,14.94-2.32,4.92-7.89,8.45-13.28,6.23-11.65-4.8-22.29-.72-33.1,2.16-15.25,4.07-29.37,10.71-42.48,19.56-5.79,3.91-11.64,7.84-17.86,10.98-17.51,8.86-27.45,4.69-33.92-14.8-2.99,2.59-5.59,4.93-8.28,7.16-4.09,3.4-7.89,7.33-12.44,9.95-10.38,5.99-20.23.9-22.11-10.93-.34-2.16-.47-4.35-.92-8.65-4.61,4.54-7.79,7.75-11.07,10.86-2.66,2.52-5.33,5.05-8.16,7.37-9.81,8.05-14.72,7.78-24.61-1.64-1.96,1.33-4.05,2.76-6.17,4.16-6.66,4.4-12.97,9.5-20.06,13.04-22.7,11.33-44.15,7.94-63.34-7.98C7.29,250.88-.63,229.14.04,204.13c1.15-42.93,13.38-82.67,35.41-119.39,5.64-9.41,11.5-18.9,18.69-27.1,7.39-8.43,16.04-15.99,25.09-22.63,5.43-3.98,12.5-6.35,19.19-7.89,12.74-2.92,24.35,3.14,29.29,15.23,2.47,6.05,4.11,12.81,4.35,19.32.98,26.74-4.05,52.41-15.86,76.54-2.47,5.05-5.39,10.07-9.01,14.33-6.87,8.06-18.85,7.09-25.03-1.49-4.93-6.84-2.91-15.77,5.15-17.71,6.39-1.54,8.44-5.54,10.6-10.48,7.99-18.34,11.1-37.64,11.26-57.48.04-5.22.62-11.7-4.46-14.52-5.23-2.89-10.36,1.26-14.43,4.48-6.24,4.93-12.8,9.91-17.6,16.12-31.09,40.16-48.93,85.25-49.2,136.58-.08,15.4,4.91,28.76,16.17,39.52,12.34,11.79,27.5,14.39,42.13,5.68,8.77-5.22,17.37-11.54,24.23-19.04,17.52-19.16,34.81-38.64,50.74-59.12,20.04-25.76,38.7-52.6,57.8-79.09,4.48-6.2,8.4-12.81,12.51-19.28,5.09-7.99,11.08-10.52,17.23-7.16,6.41,3.49,7.94,10.89,3.3,19.23-4.69,8.44-9.44,16.92-15.05,24.75-14.55,20.31-29.57,40.28-44.43,60.36-2.94,3.97-6.02,7.84-9.85,12.83Z"/>
</svg>