<svg width="220" height="22" viewBox="0 0 220 22" fill="none" xmlns="http://www.w3.org/2000/svg">
<path d="M21.1867 21H14.84L12.18 15.9367H7.28V21H0.816667V1.4H12.04C17.4767 1.4 20.5333 3.73333 20.5333 8.89C20.5333 11.5267 19.3433 13.3933 17.6867 14.56L21.1867 21ZM7.28 6.76667V11.1067H11.5967C13.23 11.1067 14.07 10.3133 14.07 8.93667C14.07 7.56 13.23 6.76667 11.5967 6.76667H7.28ZM42.1535 1.4L34.1268 14.91V21H27.6635V14.8867L19.6602 1.4H26.4502L30.6502 8.77333H31.1635L35.3635 1.4H42.1535ZM54.4049 21L53.5416 18.41H45.1416L44.2783 21H37.6049L44.8149 1.4H53.8683L61.0783 21H54.4049ZM46.7283 13.6267H51.9549L49.9016 7.46667H48.7816L46.7283 13.6267ZM62.012 21V1.4H69.432L75.942 11.9933H76.5253V1.4H82.8253V21H75.5686L68.8953 10.4067H68.312V21H62.012ZM94.3079 1.4C102.288 1.4 105.088 5.55333 105.088 11.2C105.088 16.8233 102.288 21 94.3079 21H84.4612V1.4H94.3079ZM94.3079 15.5867C96.8279 15.5867 98.6012 14.3267 98.6012 11.2C98.6012 8.05 96.8279 6.81333 94.3079 6.81333H90.9479V15.5867H94.3079ZM106.5 21V1.4H124.164V6.58H112.964V9.07667H123.744V13.3233H112.964V15.82H124.164V21H106.5ZM135.138 21.6533C128.372 21.63 125.175 19.53 125.338 14.4433H131.148C131.218 15.7733 132.338 16.59 135.138 16.6133C137.612 16.6367 138.755 15.9367 138.755 15.0267C138.755 14.3967 138.405 13.7433 136.492 13.4633L133.972 13.0667C130.262 12.46 125.805 12.0167 125.805 7C125.805 3.12667 128.955 0.746666 135.185 0.746666C140.808 0.746666 144.728 2.31 144.612 7.91H138.848C138.615 6.60333 137.518 5.78667 135.045 5.78667C132.898 5.78667 132.012 6.44 132.012 7.32667C132.012 7.88667 132.362 8.56333 133.855 8.79667L135.932 9.14667C139.828 9.8 145.172 9.91667 145.172 15.2833C145.172 19.5533 141.858 21.6767 135.138 21.6533ZM146.395 21V1.4H152.858V21H146.395ZM175.582 10.1733V21H172.129L172.035 18.41C170.682 20.2767 168.232 21.6533 164.779 21.6533C158.759 21.6533 154.139 17.4767 154.139 11.2C154.139 4.92333 158.525 0.746666 165.339 0.746666C169.982 0.746666 174.719 2.98667 175.489 8.26H169.072C168.675 7.28 167.392 6.32333 165.479 6.32333C162.585 6.32333 160.555 8.23667 160.555 11.2C160.555 14.1633 162.632 16.0767 165.292 16.0767C166.249 16.0767 168.699 15.82 169.352 13.5333H165.035V10.1733H175.582ZM177.321 21V1.4H184.741L191.251 11.9933H191.834V1.4H198.134V21H190.877L184.204 10.4067H183.621V21H177.321ZM209.103 21.6533C202.336 21.63 199.14 19.53 199.303 14.4433H205.113C205.183 15.7733 206.303 16.59 209.103 16.6133C211.576 16.6367 212.72 15.9367 212.72 15.0267C212.72 14.3967 212.37 13.7433 210.456 13.4633L207.936 13.0667C204.226 12.46 199.77 12.0167 199.77 7C199.77 3.12667 202.92 0.746666 209.15 0.746666C214.773 0.746666 218.693 2.31 218.576 7.91H212.813C212.58 6.60333 211.483 5.78667 209.01 5.78667C206.863 5.78667 205.976 6.44 205.976 7.32667C205.976 7.88667 206.326 8.56333 207.82 8.79667L209.896 9.14667C213.793 9.8 219.136 9.91667 219.136 15.2833C219.136 19.5533 215.823 21.6767 209.103 21.6533Z" fill="white"/>
</svg>
