<?xml version="1.0" encoding="UTF-8"?>
<svg id="Layer_1" data-name="Layer 1" xmlns="http://www.w3.org/2000/svg" version="1.1" viewBox="0 0 803.84 799.91">
  <defs>
    <style>
      .cls-1 {
        opacity: .2;
      }

      .cls-2 {
        fill: #fff;
        stroke-width: 0px;
      }
    </style>
  </defs>
  <g class="cls-1">
    <path class="cls-2" d="M339.9,790.16c-2.7,0-4.89,2.19-4.89,4.89,0,.19.03.37.06.55,3.11.47,6.23.91,9.36,1.31.24-.57.37-1.2.37-1.86,0-2.7-2.19-4.89-4.89-4.89Z"/>
    <path class="cls-2" d="M386.67,795.05c0-2.7-2.19-4.89-4.89-4.89s-4.89,2.19-4.89,4.89c0,2.45,1.81,4.46,4.16,4.82.36.01.71.03,1.07.04,2.55-.17,4.56-2.27,4.56-4.86Z"/>
    <path class="cls-2" d="M428.55,795.05c0-2.7-2.19-4.89-4.89-4.89s-4.89,2.19-4.89,4.89c0,1.9,1.1,3.54,2.69,4.34,1.66-.1,3.32-.19,4.98-.32,1.28-.88,2.12-2.36,2.12-4.03Z"/>
    <path class="cls-2" d="M465.53,790.16c-2.7,0-4.89,2.19-4.89,4.89,0,.02,0,.05,0,.07,3.18-.5,6.35-1.04,9.51-1.62-.65-1.94-2.46-3.35-4.62-3.35Z"/>
    <path class="cls-2" d="M235.21,765.39c-.86,0-1.66.24-2.36.63,2.35,1.03,4.71,2.05,7.09,3.04-.55-2.11-2.44-3.67-4.72-3.67Z"/>
    <path class="cls-2" d="M277.09,765.39c-2.7,0-4.89,2.19-4.89,4.89s2.19,4.89,4.89,4.89,4.89-2.19,4.89-4.89-2.19-4.89-4.89-4.89Z"/>
    <path class="cls-2" d="M318.96,765.39c-2.7,0-4.89,2.19-4.89,4.89s2.19,4.89,4.89,4.89,4.89-2.19,4.89-4.89-2.19-4.89-4.89-4.89Z"/>
    <path class="cls-2" d="M360.84,765.39c-2.7,0-4.89,2.19-4.89,4.89s2.19,4.89,4.89,4.89,4.89-2.19,4.89-4.89-2.19-4.89-4.89-4.89Z"/>
    <path class="cls-2" d="M402.72,765.39c-2.7,0-4.89,2.19-4.89,4.89s2.19,4.89,4.89,4.89,4.89-2.19,4.89-4.89-2.19-4.89-4.89-4.89Z"/>
    <path class="cls-2" d="M444.59,765.39c-2.7,0-4.89,2.19-4.89,4.89s2.19,4.89,4.89,4.89,4.89-2.19,4.89-4.89-2.19-4.89-4.89-4.89Z"/>
    <path class="cls-2" d="M486.47,765.39c-2.7,0-4.89,2.19-4.89,4.89s2.19,4.89,4.89,4.89,4.89-2.19,4.89-4.89-2.19-4.89-4.89-4.89Z"/>
    <path class="cls-2" d="M528.34,765.39c-2.7,0-4.89,2.19-4.89,4.89s2.19,4.89,4.89,4.89,4.89-2.19,4.89-4.89-2.19-4.89-4.89-4.89Z"/>
    <path class="cls-2" d="M214.27,740.77c-2.7,0-4.89,2.19-4.89,4.89s2.19,4.89,4.89,4.89,4.89-2.19,4.89-4.89-2.19-4.89-4.89-4.89Z"/>
    <path class="cls-2" d="M256.15,740.77c-2.7,0-4.89,2.19-4.89,4.89s2.19,4.89,4.89,4.89,4.89-2.19,4.89-4.89-2.19-4.89-4.89-4.89Z"/>
    <path class="cls-2" d="M298.03,740.77c-2.7,0-4.89,2.19-4.89,4.89s2.19,4.89,4.89,4.89,4.89-2.19,4.89-4.89-2.19-4.89-4.89-4.89Z"/>
    <path class="cls-2" d="M339.9,740.77c-2.7,0-4.89,2.19-4.89,4.89s2.19,4.89,4.89,4.89,4.89-2.19,4.89-4.89-2.19-4.89-4.89-4.89Z"/>
    <path class="cls-2" d="M381.78,740.77c-2.7,0-4.89,2.19-4.89,4.89s2.19,4.89,4.89,4.89,4.89-2.19,4.89-4.89-2.19-4.89-4.89-4.89Z"/>
    <path class="cls-2" d="M423.65,740.77c-2.7,0-4.89,2.19-4.89,4.89s2.19,4.89,4.89,4.89,4.89-2.19,4.89-4.89-2.19-4.89-4.89-4.89Z"/>
    <path class="cls-2" d="M465.53,740.77c-2.7,0-4.89,2.19-4.89,4.89s2.19,4.89,4.89,4.89,4.89-2.19,4.89-4.89-2.19-4.89-4.89-4.89Z"/>
    <path class="cls-2" d="M507.4,740.77c-2.7,0-4.89,2.19-4.89,4.89s2.19,4.89,4.89,4.89,4.89-2.19,4.89-4.89-2.19-4.89-4.89-4.89Z"/>
    <path class="cls-2" d="M549.28,740.77c-2.7,0-4.89,2.19-4.89,4.89s2.19,4.89,4.89,4.89,4.89-2.19,4.89-4.89-2.19-4.89-4.89-4.89Z"/>
    <path class="cls-2" d="M591.16,740.77c-2.7,0-4.89,2.19-4.89,4.89s2.19,4.89,4.89,4.89c.1,0,.19-.02.29-.03,1.25-.69,2.49-1.39,3.74-2.09.55-.79.87-1.74.87-2.78,0-2.7-2.19-4.89-4.89-4.89Z"/>
    <path class="cls-2" d="M151.46,716c-.85,0-1.63.23-2.33.61,2.35,1.8,4.72,3.57,7.11,5.31.07-.33.11-.68.11-1.03,0-2.7-2.19-4.89-4.89-4.89Z"/>
    <path class="cls-2" d="M193.34,716c-2.7,0-4.89,2.19-4.89,4.89s2.19,4.89,4.89,4.89,4.89-2.19,4.89-4.89-2.19-4.89-4.89-4.89Z"/>
    <path class="cls-2" d="M235.21,716c-2.7,0-4.89,2.19-4.89,4.89s2.19,4.89,4.89,4.89,4.89-2.19,4.89-4.89-2.19-4.89-4.89-4.89Z"/>
    <path class="cls-2" d="M277.09,716c-2.7,0-4.89,2.19-4.89,4.89s2.19,4.89,4.89,4.89,4.89-2.19,4.89-4.89-2.19-4.89-4.89-4.89Z"/>
    <path class="cls-2" d="M318.96,716c-2.7,0-4.89,2.19-4.89,4.89s2.19,4.89,4.89,4.89,4.89-2.19,4.89-4.89-2.19-4.89-4.89-4.89Z"/>
    <path class="cls-2" d="M360.84,716c-2.7,0-4.89,2.19-4.89,4.89s2.19,4.89,4.89,4.89,4.89-2.19,4.89-4.89-2.19-4.89-4.89-4.89Z"/>
    <path class="cls-2" d="M402.72,716c-2.7,0-4.89,2.19-4.89,4.89s2.19,4.89,4.89,4.89,4.89-2.19,4.89-4.89-2.19-4.89-4.89-4.89Z"/>
    <path class="cls-2" d="M444.59,716c-2.7,0-4.89,2.19-4.89,4.89s2.19,4.89,4.89,4.89,4.89-2.19,4.89-4.89-2.19-4.89-4.89-4.89Z"/>
    <path class="cls-2" d="M486.47,716c-2.7,0-4.89,2.19-4.89,4.89s2.19,4.89,4.89,4.89,4.89-2.19,4.89-4.89-2.19-4.89-4.89-4.89Z"/>
    <path class="cls-2" d="M528.34,716c-2.7,0-4.89,2.19-4.89,4.89s2.19,4.89,4.89,4.89,4.89-2.19,4.89-4.89-2.19-4.89-4.89-4.89Z"/>
    <path class="cls-2" d="M570.22,716c-2.7,0-4.89,2.19-4.89,4.89s2.19,4.89,4.89,4.89,4.89-2.19,4.89-4.89-2.19-4.89-4.89-4.89Z"/>
    <path class="cls-2" d="M612.09,716c-2.7,0-4.89,2.19-4.89,4.89s2.19,4.89,4.89,4.89,4.89-2.19,4.89-4.89-2.19-4.89-4.89-4.89Z"/>
    <path class="cls-2" d="M135.42,696.28c0-2.7-2.19-4.89-4.89-4.89s-4.89,2.19-4.89,4.89c0,.36.04.71.12,1.05,1.43,1.27,2.85,2.55,4.3,3.8.16.02.31.05.48.05,2.7,0,4.89-2.19,4.89-4.89Z"/>
    <path class="cls-2" d="M172.4,691.39c-2.7,0-4.89,2.19-4.89,4.89s2.19,4.89,4.89,4.89,4.89-2.19,4.89-4.89-2.19-4.89-4.89-4.89Z"/>
    <path class="cls-2" d="M214.27,691.39c-2.7,0-4.89,2.19-4.89,4.89s2.19,4.89,4.89,4.89,4.89-2.19,4.89-4.89-2.19-4.89-4.89-4.89Z"/>
    <path class="cls-2" d="M256.15,691.39c-2.7,0-4.89,2.19-4.89,4.89s2.19,4.89,4.89,4.89,4.89-2.19,4.89-4.89-2.19-4.89-4.89-4.89Z"/>
    <path class="cls-2" d="M298.03,691.39c-2.7,0-4.89,2.19-4.89,4.89s2.19,4.89,4.89,4.89,4.89-2.19,4.89-4.89-2.19-4.89-4.89-4.89Z"/>
    <circle class="cls-2" cx="339.9" cy="696.28" r="4.89"/>
    <circle class="cls-2" cx="381.78" cy="696.28" r="4.89"/>
    <circle class="cls-2" cx="423.65" cy="696.28" r="4.89"/>
    <path class="cls-2" d="M465.53,691.39c-2.7,0-4.89,2.19-4.89,4.89s2.19,4.89,4.89,4.89,4.89-2.19,4.89-4.89-2.19-4.89-4.89-4.89Z"/>
    <path class="cls-2" d="M507.4,691.39c-2.7,0-4.89,2.19-4.89,4.89s2.19,4.89,4.89,4.89,4.89-2.19,4.89-4.89-2.19-4.89-4.89-4.89Z"/>
    <path class="cls-2" d="M549.28,691.39c-2.7,0-4.89,2.19-4.89,4.89s2.19,4.89,4.89,4.89,4.89-2.19,4.89-4.89-2.19-4.89-4.89-4.89Z"/>
    <path class="cls-2" d="M591.16,691.39c-2.7,0-4.89,2.19-4.89,4.89s2.19,4.89,4.89,4.89,4.89-2.19,4.89-4.89-2.19-4.89-4.89-4.89Z"/>
    <path class="cls-2" d="M109.58,666.62c-2.7,0-4.89,2.19-4.89,4.89s2.19,4.89,4.89,4.89,4.89-2.19,4.89-4.89-2.19-4.89-4.89-4.89Z"/>
    <path class="cls-2" d="M151.46,666.62c-2.7,0-4.89,2.19-4.89,4.89s2.19,4.89,4.89,4.89,4.89-2.19,4.89-4.89-2.19-4.89-4.89-4.89Z"/>
    <path class="cls-2" d="M193.34,666.62c-2.7,0-4.89,2.19-4.89,4.89s2.19,4.89,4.89,4.89,4.89-2.19,4.89-4.89-2.19-4.89-4.89-4.89Z"/>
    <path class="cls-2" d="M235.21,666.62c-2.7,0-4.89,2.19-4.89,4.89s2.19,4.89,4.89,4.89,4.89-2.19,4.89-4.89-2.19-4.89-4.89-4.89Z"/>
    <path class="cls-2" d="M277.09,666.62c-2.7,0-4.89,2.19-4.89,4.89s2.19,4.89,4.89,4.89,4.89-2.19,4.89-4.89-2.19-4.89-4.89-4.89Z"/>
    <path class="cls-2" d="M318.96,666.62c-2.7,0-4.89,2.19-4.89,4.89s2.19,4.89,4.89,4.89,4.89-2.19,4.89-4.89-2.19-4.89-4.89-4.89Z"/>
    <path class="cls-2" d="M360.84,666.62c-2.7,0-4.89,2.19-4.89,4.89s2.19,4.89,4.89,4.89,4.89-2.19,4.89-4.89-2.19-4.89-4.89-4.89Z"/>
    <path class="cls-2" d="M402.72,666.62c-2.7,0-4.89,2.19-4.89,4.89s2.19,4.89,4.89,4.89,4.89-2.19,4.89-4.89-2.19-4.89-4.89-4.89Z"/>
    <path class="cls-2" d="M444.59,666.62c-2.7,0-4.89,2.19-4.89,4.89s2.19,4.89,4.89,4.89,4.89-2.19,4.89-4.89-2.19-4.89-4.89-4.89Z"/>
    <path class="cls-2" d="M486.47,666.62c-2.7,0-4.89,2.19-4.89,4.89s2.19,4.89,4.89,4.89,4.89-2.19,4.89-4.89-2.19-4.89-4.89-4.89Z"/>
    <path class="cls-2" d="M528.34,666.62c-2.7,0-4.89,2.19-4.89,4.89s2.19,4.89,4.89,4.89,4.89-2.19,4.89-4.89-2.19-4.89-4.89-4.89Z"/>
    <path class="cls-2" d="M570.22,666.62c-2.7,0-4.89,2.19-4.89,4.89s2.19,4.89,4.89,4.89,4.89-2.19,4.89-4.89-2.19-4.89-4.89-4.89Z"/>
    <path class="cls-2" d="M612.09,666.62c-2.7,0-4.89,2.19-4.89,4.89s2.19,4.89,4.89,4.89,4.89-2.19,4.89-4.89-2.19-4.89-4.89-4.89Z"/>
    <circle class="cls-2" cx="88.65" cy="646.9" r="4.89"/>
    <circle class="cls-2" cx="130.52" cy="646.9" r="4.89"/>
    <path class="cls-2" d="M172.4,642c-2.7,0-4.89,2.19-4.89,4.89s2.19,4.89,4.89,4.89,4.89-2.19,4.89-4.89-2.19-4.89-4.89-4.89Z"/>
    <path class="cls-2" d="M214.27,642c-2.7,0-4.89,2.19-4.89,4.89s2.19,4.89,4.89,4.89,4.89-2.19,4.89-4.89-2.19-4.89-4.89-4.89Z"/>
    <path class="cls-2" d="M256.15,642c-2.7,0-4.89,2.19-4.89,4.89s2.19,4.89,4.89,4.89,4.89-2.19,4.89-4.89-2.19-4.89-4.89-4.89Z"/>
    <path class="cls-2" d="M298.03,642c-2.7,0-4.89,2.19-4.89,4.89s2.19,4.89,4.89,4.89,4.89-2.19,4.89-4.89-2.19-4.89-4.89-4.89Z"/>
    <circle class="cls-2" cx="339.9" cy="646.9" r="4.89"/>
    <circle class="cls-2" cx="381.78" cy="646.9" r="4.89"/>
    <circle class="cls-2" cx="423.65" cy="646.9" r="4.89"/>
    <path class="cls-2" d="M465.53,642c-2.7,0-4.89,2.19-4.89,4.89s2.19,4.89,4.89,4.89,4.89-2.19,4.89-4.89-2.19-4.89-4.89-4.89Z"/>
    <path class="cls-2" d="M507.4,642c-2.7,0-4.89,2.19-4.89,4.89s2.19,4.89,4.89,4.89,4.89-2.19,4.89-4.89-2.19-4.89-4.89-4.89Z"/>
    <path class="cls-2" d="M549.28,642c-2.7,0-4.89,2.19-4.89,4.89s2.19,4.89,4.89,4.89,4.89-2.19,4.89-4.89-2.19-4.89-4.89-4.89Z"/>
    <path class="cls-2" d="M591.16,642c-2.7,0-4.89,2.19-4.89,4.89s2.19,4.89,4.89,4.89,4.89-2.19,4.89-4.89-2.19-4.89-4.89-4.89Z"/>
    <path class="cls-2" d="M67.71,617.23c-2.7,0-4.89,2.19-4.89,4.89s2.19,4.89,4.89,4.89,4.89-2.19,4.89-4.89-2.19-4.89-4.89-4.89Z"/>
    <path class="cls-2" d="M109.58,617.23c-2.7,0-4.89,2.19-4.89,4.89s2.19,4.89,4.89,4.89,4.89-2.19,4.89-4.89-2.19-4.89-4.89-4.89Z"/>
    <path class="cls-2" d="M151.46,617.23c-2.7,0-4.89,2.19-4.89,4.89s2.19,4.89,4.89,4.89,4.89-2.19,4.89-4.89-2.19-4.89-4.89-4.89Z"/>
    <path class="cls-2" d="M193.34,617.23c-2.7,0-4.89,2.19-4.89,4.89s2.19,4.89,4.89,4.89,4.89-2.19,4.89-4.89-2.19-4.89-4.89-4.89Z"/>
    <path class="cls-2" d="M235.21,617.23c-2.7,0-4.89,2.19-4.89,4.89s2.19,4.89,4.89,4.89,4.89-2.19,4.89-4.89-2.19-4.89-4.89-4.89Z"/>
    <path class="cls-2" d="M277.09,617.23c-2.7,0-4.89,2.19-4.89,4.89s2.19,4.89,4.89,4.89,4.89-2.19,4.89-4.89-2.19-4.89-4.89-4.89Z"/>
    <path class="cls-2" d="M318.96,617.23c-2.7,0-4.89,2.19-4.89,4.89s2.19,4.89,4.89,4.89,4.89-2.19,4.89-4.89-2.19-4.89-4.89-4.89Z"/>
    <path class="cls-2" d="M360.84,617.23c-2.7,0-4.89,2.19-4.89,4.89s2.19,4.89,4.89,4.89,4.89-2.19,4.89-4.89-2.19-4.89-4.89-4.89Z"/>
    <path class="cls-2" d="M402.72,617.23c-2.7,0-4.89,2.19-4.89,4.89s2.19,4.89,4.89,4.89,4.89-2.19,4.89-4.89-2.19-4.89-4.89-4.89Z"/>
    <path class="cls-2" d="M444.59,617.23c-2.7,0-4.89,2.19-4.89,4.89s2.19,4.89,4.89,4.89,4.89-2.19,4.89-4.89-2.19-4.89-4.89-4.89Z"/>
    <path class="cls-2" d="M486.47,617.23c-2.7,0-4.89,2.19-4.89,4.89s2.19,4.89,4.89,4.89,4.89-2.19,4.89-4.89-2.19-4.89-4.89-4.89Z"/>
    <path class="cls-2" d="M528.34,617.23c-2.7,0-4.89,2.19-4.89,4.89s2.19,4.89,4.89,4.89,4.89-2.19,4.89-4.89-2.19-4.89-4.89-4.89Z"/>
    <path class="cls-2" d="M570.22,617.23c-2.7,0-4.89,2.19-4.89,4.89s2.19,4.89,4.89,4.89,4.89-2.19,4.89-4.89-2.19-4.89-4.89-4.89Z"/>
    <path class="cls-2" d="M612.09,617.23c-2.7,0-4.89,2.19-4.89,4.89s2.19,4.89,4.89,4.89,4.89-2.19,4.89-4.89-2.19-4.89-4.89-4.89Z"/>
    <path class="cls-2" d="M51.67,597.51c0-2.7-2.19-4.89-4.89-4.89-1.8,0-3.35.98-4.2,2.42,1.42,2.47,2.87,4.92,4.33,7.36,2.64-.07,4.76-2.22,4.76-4.88Z"/>
    <circle class="cls-2" cx="88.65" cy="597.51" r="4.89"/>
    <circle class="cls-2" cx="130.52" cy="597.51" r="4.89"/>
    <path class="cls-2" d="M172.4,592.62c-2.7,0-4.89,2.19-4.89,4.89s2.19,4.89,4.89,4.89,4.89-2.19,4.89-4.89-2.19-4.89-4.89-4.89Z"/>
    <path class="cls-2" d="M214.27,592.62c-2.7,0-4.89,2.19-4.89,4.89s2.19,4.89,4.89,4.89,4.89-2.19,4.89-4.89-2.19-4.89-4.89-4.89Z"/>
    <path class="cls-2" d="M256.15,592.62c-2.7,0-4.89,2.19-4.89,4.89s2.19,4.89,4.89,4.89,4.89-2.19,4.89-4.89-2.19-4.89-4.89-4.89Z"/>
    <path class="cls-2" d="M298.03,592.62c-2.7,0-4.89,2.19-4.89,4.89s2.19,4.89,4.89,4.89,4.89-2.19,4.89-4.89-2.19-4.89-4.89-4.89Z"/>
    <circle class="cls-2" cx="339.9" cy="597.51" r="4.89"/>
    <circle class="cls-2" cx="381.78" cy="597.51" r="4.89"/>
    <circle class="cls-2" cx="423.65" cy="597.51" r="4.89"/>
    <path class="cls-2" d="M465.53,592.62c-2.7,0-4.89,2.19-4.89,4.89s2.19,4.89,4.89,4.89,4.89-2.19,4.89-4.89-2.19-4.89-4.89-4.89Z"/>
    <path class="cls-2" d="M507.4,592.62c-2.7,0-4.89,2.19-4.89,4.89s2.19,4.89,4.89,4.89,4.89-2.19,4.89-4.89-2.19-4.89-4.89-4.89Z"/>
    <path class="cls-2" d="M549.28,592.62c-2.7,0-4.89,2.19-4.89,4.89s2.19,4.89,4.89,4.89,4.89-2.19,4.89-4.89-2.19-4.89-4.89-4.89Z"/>
    <path class="cls-2" d="M591.16,592.62c-2.7,0-4.89,2.19-4.89,4.89s2.19,4.89,4.89,4.89,4.89-2.19,4.89-4.89-2.19-4.89-4.89-4.89Z"/>
    <path class="cls-2" d="M28.82,568.9c.62,1.29,1.27,2.57,1.9,3.86,0,0,0,0,0,0,0-1.57-.75-2.95-1.9-3.85Z"/>
    <path class="cls-2" d="M67.71,567.85c-2.7,0-4.89,2.19-4.89,4.89s2.19,4.89,4.89,4.89,4.89-2.19,4.89-4.89-2.19-4.89-4.89-4.89Z"/>
    <path class="cls-2" d="M109.58,567.85c-2.7,0-4.89,2.19-4.89,4.89s2.19,4.89,4.89,4.89,4.89-2.19,4.89-4.89-2.19-4.89-4.89-4.89Z"/>
    <path class="cls-2" d="M151.46,567.85c-2.7,0-4.89,2.19-4.89,4.89s2.19,4.89,4.89,4.89,4.89-2.19,4.89-4.89-2.19-4.89-4.89-4.89Z"/>
    <path class="cls-2" d="M193.34,567.85c-2.7,0-4.89,2.19-4.89,4.89s2.19,4.89,4.89,4.89,4.89-2.19,4.89-4.89-2.19-4.89-4.89-4.89Z"/>
    <path class="cls-2" d="M235.21,567.85c-2.7,0-4.89,2.19-4.89,4.89s2.19,4.89,4.89,4.89,4.89-2.19,4.89-4.89-2.19-4.89-4.89-4.89Z"/>
    <path class="cls-2" d="M277.09,567.85c-2.7,0-4.89,2.19-4.89,4.89s2.19,4.89,4.89,4.89,4.89-2.19,4.89-4.89-2.19-4.89-4.89-4.89Z"/>
    <path class="cls-2" d="M318.96,567.85c-2.7,0-4.89,2.19-4.89,4.89s2.19,4.89,4.89,4.89,4.89-2.19,4.89-4.89-2.19-4.89-4.89-4.89Z"/>
    <path class="cls-2" d="M360.84,567.85c-2.7,0-4.89,2.19-4.89,4.89s2.19,4.89,4.89,4.89,4.89-2.19,4.89-4.89-2.19-4.89-4.89-4.89Z"/>
    <path class="cls-2" d="M402.72,567.85c-2.7,0-4.89,2.19-4.89,4.89s2.19,4.89,4.89,4.89,4.89-2.19,4.89-4.89-2.19-4.89-4.89-4.89Z"/>
    <path class="cls-2" d="M444.59,567.85c-2.7,0-4.89,2.19-4.89,4.89s2.19,4.89,4.89,4.89,4.89-2.19,4.89-4.89-2.19-4.89-4.89-4.89Z"/>
    <path class="cls-2" d="M486.47,567.85c-2.7,0-4.89,2.19-4.89,4.89s2.19,4.89,4.89,4.89,4.89-2.19,4.89-4.89-2.19-4.89-4.89-4.89Z"/>
    <path class="cls-2" d="M528.34,567.85c-2.7,0-4.89,2.19-4.89,4.89s2.19,4.89,4.89,4.89,4.89-2.19,4.89-4.89-2.19-4.89-4.89-4.89Z"/>
    <path class="cls-2" d="M570.22,567.85c-2.7,0-4.89,2.19-4.89,4.89s2.19,4.89,4.89,4.89,4.89-2.19,4.89-4.89-2.19-4.89-4.89-4.89Z"/>
    <path class="cls-2" d="M612.09,567.85c-2.7,0-4.89,2.19-4.89,4.89s2.19,4.89,4.89,4.89,4.89-2.19,4.89-4.89-2.19-4.89-4.89-4.89Z"/>
    <circle class="cls-2" cx="46.77" cy="548.13" r="4.89"/>
    <circle class="cls-2" cx="88.65" cy="548.13" r="4.89"/>
    <circle class="cls-2" cx="130.52" cy="548.13" r="4.89"/>
    <path class="cls-2" d="M172.4,543.23c-2.7,0-4.89,2.19-4.89,4.89s2.19,4.89,4.89,4.89,4.89-2.19,4.89-4.89-2.19-4.89-4.89-4.89Z"/>
    <path class="cls-2" d="M214.27,543.23c-2.7,0-4.89,2.19-4.89,4.89s2.19,4.89,4.89,4.89,4.89-2.19,4.89-4.89-2.19-4.89-4.89-4.89Z"/>
    <path class="cls-2" d="M256.15,543.23c-2.7,0-4.89,2.19-4.89,4.89s2.19,4.89,4.89,4.89,4.89-2.19,4.89-4.89-2.19-4.89-4.89-4.89Z"/>
    <path class="cls-2" d="M298.03,543.23c-2.7,0-4.89,2.19-4.89,4.89s2.19,4.89,4.89,4.89,4.89-2.19,4.89-4.89-2.19-4.89-4.89-4.89Z"/>
    <circle class="cls-2" cx="339.9" cy="548.13" r="4.89"/>
    <circle class="cls-2" cx="381.78" cy="548.13" r="4.89"/>
    <circle class="cls-2" cx="423.65" cy="548.13" r="4.89"/>
    <path class="cls-2" d="M465.53,543.23c-2.7,0-4.89,2.19-4.89,4.89s2.19,4.89,4.89,4.89,4.89-2.19,4.89-4.89-2.19-4.89-4.89-4.89Z"/>
    <path class="cls-2" d="M507.4,543.23c-2.7,0-4.89,2.19-4.89,4.89s2.19,4.89,4.89,4.89,4.89-2.19,4.89-4.89-2.19-4.89-4.89-4.89Z"/>
    <path class="cls-2" d="M549.28,543.23c-2.7,0-4.89,2.19-4.89,4.89s2.19,4.89,4.89,4.89,4.89-2.19,4.89-4.89-2.19-4.89-4.89-4.89Z"/>
    <path class="cls-2" d="M591.16,543.23c-2.7,0-4.89,2.19-4.89,4.89s2.19,4.89,4.89,4.89,4.89-2.19,4.89-4.89-2.19-4.89-4.89-4.89Z"/>
    <path class="cls-2" d="M25.83,518.46c-2.7,0-4.89,2.19-4.89,4.89s2.19,4.89,4.89,4.89,4.89-2.19,4.89-4.89-2.19-4.89-4.89-4.89Z"/>
    <path class="cls-2" d="M67.71,518.46c-2.7,0-4.89,2.19-4.89,4.89s2.19,4.89,4.89,4.89,4.89-2.19,4.89-4.89-2.19-4.89-4.89-4.89Z"/>
    <path class="cls-2" d="M109.58,518.46c-2.7,0-4.89,2.19-4.89,4.89s2.19,4.89,4.89,4.89,4.89-2.19,4.89-4.89-2.19-4.89-4.89-4.89Z"/>
    <path class="cls-2" d="M151.46,518.46c-2.7,0-4.89,2.19-4.89,4.89s2.19,4.89,4.89,4.89,4.89-2.19,4.89-4.89-2.19-4.89-4.89-4.89Z"/>
    <path class="cls-2" d="M193.34,518.46c-2.7,0-4.89,2.19-4.89,4.89s2.19,4.89,4.89,4.89,4.89-2.19,4.89-4.89-2.19-4.89-4.89-4.89Z"/>
    <path class="cls-2" d="M235.21,518.46c-2.7,0-4.89,2.19-4.89,4.89s2.19,4.89,4.89,4.89,4.89-2.19,4.89-4.89-2.19-4.89-4.89-4.89Z"/>
    <path class="cls-2" d="M277.09,518.46c-2.7,0-4.89,2.19-4.89,4.89s2.19,4.89,4.89,4.89,4.89-2.19,4.89-4.89-2.19-4.89-4.89-4.89Z"/>
    <path class="cls-2" d="M318.96,518.46c-2.7,0-4.89,2.19-4.89,4.89s2.19,4.89,4.89,4.89,4.89-2.19,4.89-4.89-2.19-4.89-4.89-4.89Z"/>
    <path class="cls-2" d="M360.84,518.46c-2.7,0-4.89,2.19-4.89,4.89s2.19,4.89,4.89,4.89,4.89-2.19,4.89-4.89-2.19-4.89-4.89-4.89Z"/>
    <path class="cls-2" d="M402.72,518.46c-2.7,0-4.89,2.19-4.89,4.89s2.19,4.89,4.89,4.89,4.89-2.19,4.89-4.89-2.19-4.89-4.89-4.89Z"/>
    <path class="cls-2" d="M444.59,518.46c-2.7,0-4.89,2.19-4.89,4.89s2.19,4.89,4.89,4.89,4.89-2.19,4.89-4.89-2.19-4.89-4.89-4.89Z"/>
    <path class="cls-2" d="M486.47,518.46c-2.7,0-4.89,2.19-4.89,4.89s2.19,4.89,4.89,4.89,4.89-2.19,4.89-4.89-2.19-4.89-4.89-4.89Z"/>
    <path class="cls-2" d="M528.34,518.46c-2.7,0-4.89,2.19-4.89,4.89s2.19,4.89,4.89,4.89,4.89-2.19,4.89-4.89-2.19-4.89-4.89-4.89Z"/>
    <path class="cls-2" d="M570.22,518.46c-2.7,0-4.89,2.19-4.89,4.89s2.19,4.89,4.89,4.89,4.89-2.19,4.89-4.89-2.19-4.89-4.89-4.89Z"/>
    <path class="cls-2" d="M612.09,518.46c-2.7,0-4.89,2.19-4.89,4.89s2.19,4.89,4.89,4.89,4.89-2.19,4.89-4.89-2.19-4.89-4.89-4.89Z"/>
    <path class="cls-2" d="M9.79,498.74c0-2.7-2.19-4.89-4.89-4.89-1.18,0-2.25.43-3.09,1.13.74,2.87,1.52,5.73,2.32,8.58.25.04.51.08.77.08,2.7,0,4.89-2.19,4.89-4.89Z"/>
    <path class="cls-2" d="M46.77,493.85c-2.7,0-4.89,2.19-4.89,4.89s2.19,4.89,4.89,4.89,4.89-2.19,4.89-4.89-2.19-4.89-4.89-4.89Z"/>
    <path class="cls-2" d="M88.65,493.85c-2.7,0-4.89,2.19-4.89,4.89s2.19,4.89,4.89,4.89,4.89-2.19,4.89-4.89-2.19-4.89-4.89-4.89Z"/>
    <path class="cls-2" d="M130.52,493.85c-2.7,0-4.89,2.19-4.89,4.89s2.19,4.89,4.89,4.89,4.89-2.19,4.89-4.89-2.19-4.89-4.89-4.89Z"/>
    <path class="cls-2" d="M172.4,493.85c-2.7,0-4.89,2.19-4.89,4.89s2.19,4.89,4.89,4.89,4.89-2.19,4.89-4.89-2.19-4.89-4.89-4.89Z"/>
    <path class="cls-2" d="M214.27,493.85c-2.7,0-4.89,2.19-4.89,4.89s2.19,4.89,4.89,4.89,4.89-2.19,4.89-4.89-2.19-4.89-4.89-4.89Z"/>
    <path class="cls-2" d="M256.15,493.85c-2.7,0-4.89,2.19-4.89,4.89s2.19,4.89,4.89,4.89,4.89-2.19,4.89-4.89-2.19-4.89-4.89-4.89Z"/>
    <path class="cls-2" d="M298.03,493.85c-2.7,0-4.89,2.19-4.89,4.89s2.19,4.89,4.89,4.89,4.89-2.19,4.89-4.89-2.19-4.89-4.89-4.89Z"/>
    <path class="cls-2" d="M339.9,493.85c-2.7,0-4.89,2.19-4.89,4.89s2.19,4.89,4.89,4.89,4.89-2.19,4.89-4.89-2.19-4.89-4.89-4.89Z"/>
    <path class="cls-2" d="M381.78,493.85c-2.7,0-4.89,2.19-4.89,4.89s2.19,4.89,4.89,4.89,4.89-2.19,4.89-4.89-2.19-4.89-4.89-4.89Z"/>
    <path class="cls-2" d="M423.65,493.85c-2.7,0-4.89,2.19-4.89,4.89s2.19,4.89,4.89,4.89,4.89-2.19,4.89-4.89-2.19-4.89-4.89-4.89Z"/>
    <path class="cls-2" d="M465.53,493.85c-2.7,0-4.89,2.19-4.89,4.89s2.19,4.89,4.89,4.89,4.89-2.19,4.89-4.89-2.19-4.89-4.89-4.89Z"/>
    <path class="cls-2" d="M507.4,493.85c-2.7,0-4.89,2.19-4.89,4.89s2.19,4.89,4.89,4.89,4.89-2.19,4.89-4.89-2.19-4.89-4.89-4.89Z"/>
    <path class="cls-2" d="M549.28,493.85c-2.7,0-4.89,2.19-4.89,4.89s2.19,4.89,4.89,4.89,4.89-2.19,4.89-4.89-2.19-4.89-4.89-4.89Z"/>
    <path class="cls-2" d="M591.16,493.85c-2.7,0-4.89,2.19-4.89,4.89s2.19,4.89,4.89,4.89,4.89-2.19,4.89-4.89-2.19-4.89-4.89-4.89Z"/>
    <path class="cls-2" d="M25.83,469.08c-2.7,0-4.89,2.19-4.89,4.89s2.19,4.89,4.89,4.89,4.89-2.19,4.89-4.89-2.19-4.89-4.89-4.89Z"/>
    <path class="cls-2" d="M67.71,469.08c-2.7,0-4.89,2.19-4.89,4.89s2.19,4.89,4.89,4.89,4.89-2.19,4.89-4.89-2.19-4.89-4.89-4.89Z"/>
    <path class="cls-2" d="M109.58,469.08c-2.7,0-4.89,2.19-4.89,4.89s2.19,4.89,4.89,4.89,4.89-2.19,4.89-4.89-2.19-4.89-4.89-4.89Z"/>
    <path class="cls-2" d="M151.46,469.08c-2.7,0-4.89,2.19-4.89,4.89s2.19,4.89,4.89,4.89,4.89-2.19,4.89-4.89-2.19-4.89-4.89-4.89Z"/>
    <path class="cls-2" d="M193.34,469.08c-2.7,0-4.89,2.19-4.89,4.89s2.19,4.89,4.89,4.89,4.89-2.19,4.89-4.89-2.19-4.89-4.89-4.89Z"/>
    <path class="cls-2" d="M235.21,469.08c-2.7,0-4.89,2.19-4.89,4.89s2.19,4.89,4.89,4.89,4.89-2.19,4.89-4.89-2.19-4.89-4.89-4.89Z"/>
    <path class="cls-2" d="M277.09,469.08c-2.7,0-4.89,2.19-4.89,4.89s2.19,4.89,4.89,4.89,4.89-2.19,4.89-4.89-2.19-4.89-4.89-4.89Z"/>
    <path class="cls-2" d="M318.96,469.08c-2.7,0-4.89,2.19-4.89,4.89s2.19,4.89,4.89,4.89,4.89-2.19,4.89-4.89-2.19-4.89-4.89-4.89Z"/>
    <path class="cls-2" d="M360.84,469.08c-2.7,0-4.89,2.19-4.89,4.89s2.19,4.89,4.89,4.89,4.89-2.19,4.89-4.89-2.19-4.89-4.89-4.89Z"/>
    <path class="cls-2" d="M402.72,469.08c-2.7,0-4.89,2.19-4.89,4.89s2.19,4.89,4.89,4.89,4.89-2.19,4.89-4.89-2.19-4.89-4.89-4.89Z"/>
    <path class="cls-2" d="M444.59,469.08c-2.7,0-4.89,2.19-4.89,4.89s2.19,4.89,4.89,4.89,4.89-2.19,4.89-4.89-2.19-4.89-4.89-4.89Z"/>
    <path class="cls-2" d="M486.47,469.08c-2.7,0-4.89,2.19-4.89,4.89s2.19,4.89,4.89,4.89,4.89-2.19,4.89-4.89-2.19-4.89-4.89-4.89Z"/>
    <path class="cls-2" d="M528.34,469.08c-2.7,0-4.89,2.19-4.89,4.89s2.19,4.89,4.89,4.89,4.89-2.19,4.89-4.89-2.19-4.89-4.89-4.89Z"/>
    <path class="cls-2" d="M570.22,469.08c-2.7,0-4.89,2.19-4.89,4.89s2.19,4.89,4.89,4.89,4.89-2.19,4.89-4.89-2.19-4.89-4.89-4.89Z"/>
    <path class="cls-2" d="M612.09,469.08c-2.7,0-4.89,2.19-4.89,4.89s2.19,4.89,4.89,4.89,4.89-2.19,4.89-4.89-2.19-4.89-4.89-4.89Z"/>
    <path class="cls-2" d="M4.89,444.46c-2.7,0-4.89,2.19-4.89,4.89s2.19,4.89,4.89,4.89,4.89-2.19,4.89-4.89-2.19-4.89-4.89-4.89Z"/>
    <path class="cls-2" d="M46.77,444.46c-2.7,0-4.89,2.19-4.89,4.89s2.19,4.89,4.89,4.89,4.89-2.19,4.89-4.89-2.19-4.89-4.89-4.89Z"/>
    <path class="cls-2" d="M88.65,444.46c-2.7,0-4.89,2.19-4.89,4.89s2.19,4.89,4.89,4.89,4.89-2.19,4.89-4.89-2.19-4.89-4.89-4.89Z"/>
    <path class="cls-2" d="M130.52,444.46c-2.7,0-4.89,2.19-4.89,4.89s2.19,4.89,4.89,4.89,4.89-2.19,4.89-4.89-2.19-4.89-4.89-4.89Z"/>
    <path class="cls-2" d="M172.4,444.46c-2.7,0-4.89,2.19-4.89,4.89s2.19,4.89,4.89,4.89,4.89-2.19,4.89-4.89-2.19-4.89-4.89-4.89Z"/>
    <path class="cls-2" d="M214.27,444.46c-2.7,0-4.89,2.19-4.89,4.89s2.19,4.89,4.89,4.89,4.89-2.19,4.89-4.89-2.19-4.89-4.89-4.89Z"/>
    <path class="cls-2" d="M256.15,444.46c-2.7,0-4.89,2.19-4.89,4.89s2.19,4.89,4.89,4.89,4.89-2.19,4.89-4.89-2.19-4.89-4.89-4.89Z"/>
    <path class="cls-2" d="M298.03,444.46c-2.7,0-4.89,2.19-4.89,4.89s2.19,4.89,4.89,4.89,4.89-2.19,4.89-4.89-2.19-4.89-4.89-4.89Z"/>
    <path class="cls-2" d="M339.9,444.46c-2.7,0-4.89,2.19-4.89,4.89s2.19,4.89,4.89,4.89,4.89-2.19,4.89-4.89-2.19-4.89-4.89-4.89Z"/>
    <path class="cls-2" d="M381.78,444.46c-2.7,0-4.89,2.19-4.89,4.89s2.19,4.89,4.89,4.89,4.89-2.19,4.89-4.89-2.19-4.89-4.89-4.89Z"/>
    <path class="cls-2" d="M423.65,444.46c-2.7,0-4.89,2.19-4.89,4.89s2.19,4.89,4.89,4.89,4.89-2.19,4.89-4.89-2.19-4.89-4.89-4.89Z"/>
    <path class="cls-2" d="M465.53,444.46c-2.7,0-4.89,2.19-4.89,4.89s2.19,4.89,4.89,4.89,4.89-2.19,4.89-4.89-2.19-4.89-4.89-4.89Z"/>
    <path class="cls-2" d="M507.4,444.46c-2.7,0-4.89,2.19-4.89,4.89s2.19,4.89,4.89,4.89,4.89-2.19,4.89-4.89-2.19-4.89-4.89-4.89Z"/>
    <path class="cls-2" d="M549.28,444.46c-2.7,0-4.89,2.19-4.89,4.89s2.19,4.89,4.89,4.89,4.89-2.19,4.89-4.89-2.19-4.89-4.89-4.89Z"/>
    <path class="cls-2" d="M591.16,444.46c-2.7,0-4.89,2.19-4.89,4.89s2.19,4.89,4.89,4.89,4.89-2.19,4.89-4.89-2.19-4.89-4.89-4.89Z"/>
    <path class="cls-2" d="M25.83,419.7c-2.7,0-4.89,2.19-4.89,4.89s2.19,4.89,4.89,4.89,4.89-2.19,4.89-4.89-2.19-4.89-4.89-4.89Z"/>
    <path class="cls-2" d="M67.71,419.7c-2.7,0-4.89,2.19-4.89,4.89s2.19,4.89,4.89,4.89,4.89-2.19,4.89-4.89-2.19-4.89-4.89-4.89Z"/>
    <path class="cls-2" d="M109.58,419.7c-2.7,0-4.89,2.19-4.89,4.89s2.19,4.89,4.89,4.89,4.89-2.19,4.89-4.89-2.19-4.89-4.89-4.89Z"/>
    <path class="cls-2" d="M151.46,419.7c-2.7,0-4.89,2.19-4.89,4.89s2.19,4.89,4.89,4.89,4.89-2.19,4.89-4.89-2.19-4.89-4.89-4.89Z"/>
    <path class="cls-2" d="M193.34,419.7c-2.7,0-4.89,2.19-4.89,4.89s2.19,4.89,4.89,4.89,4.89-2.19,4.89-4.89-2.19-4.89-4.89-4.89Z"/>
    <path class="cls-2" d="M235.21,419.7c-2.7,0-4.89,2.19-4.89,4.89s2.19,4.89,4.89,4.89,4.89-2.19,4.89-4.89-2.19-4.89-4.89-4.89Z"/>
    <path class="cls-2" d="M277.09,419.7c-2.7,0-4.89,2.19-4.89,4.89s2.19,4.89,4.89,4.89,4.89-2.19,4.89-4.89-2.19-4.89-4.89-4.89Z"/>
    <path class="cls-2" d="M318.96,419.7c-2.7,0-4.89,2.19-4.89,4.89s2.19,4.89,4.89,4.89,4.89-2.19,4.89-4.89-2.19-4.89-4.89-4.89Z"/>
    <path class="cls-2" d="M360.84,419.7c-2.7,0-4.89,2.19-4.89,4.89s2.19,4.89,4.89,4.89,4.89-2.19,4.89-4.89-2.19-4.89-4.89-4.89Z"/>
    <path class="cls-2" d="M402.72,419.7c-2.7,0-4.89,2.19-4.89,4.89s2.19,4.89,4.89,4.89,4.89-2.19,4.89-4.89-2.19-4.89-4.89-4.89Z"/>
    <path class="cls-2" d="M444.59,419.7c-2.7,0-4.89,2.19-4.89,4.89s2.19,4.89,4.89,4.89,4.89-2.19,4.89-4.89-2.19-4.89-4.89-4.89Z"/>
    <path class="cls-2" d="M486.47,419.7c-2.7,0-4.89,2.19-4.89,4.89s2.19,4.89,4.89,4.89,4.89-2.19,4.89-4.89-2.19-4.89-4.89-4.89Z"/>
    <path class="cls-2" d="M528.34,419.7c-2.7,0-4.89,2.19-4.89,4.89s2.19,4.89,4.89,4.89,4.89-2.19,4.89-4.89-2.19-4.89-4.89-4.89Z"/>
    <path class="cls-2" d="M570.22,419.7c-2.7,0-4.89,2.19-4.89,4.89s2.19,4.89,4.89,4.89,4.89-2.19,4.89-4.89-2.19-4.89-4.89-4.89Z"/>
    <path class="cls-2" d="M612.09,419.7c-2.7,0-4.89,2.19-4.89,4.89s2.19,4.89,4.89,4.89,4.89-2.19,4.89-4.89-2.19-4.89-4.89-4.89Z"/>
    <path class="cls-2" d="M4.89,395.08c-2.7,0-4.89,2.19-4.89,4.89s2.19,4.89,4.89,4.89,4.89-2.19,4.89-4.89-2.19-4.89-4.89-4.89Z"/>
    <path class="cls-2" d="M46.77,395.08c-2.7,0-4.89,2.19-4.89,4.89s2.19,4.89,4.89,4.89,4.89-2.19,4.89-4.89-2.19-4.89-4.89-4.89Z"/>
    <path class="cls-2" d="M88.65,395.08c-2.7,0-4.89,2.19-4.89,4.89s2.19,4.89,4.89,4.89,4.89-2.19,4.89-4.89-2.19-4.89-4.89-4.89Z"/>
    <path class="cls-2" d="M130.52,395.08c-2.7,0-4.89,2.19-4.89,4.89s2.19,4.89,4.89,4.89,4.89-2.19,4.89-4.89-2.19-4.89-4.89-4.89Z"/>
    <path class="cls-2" d="M172.4,395.08c-2.7,0-4.89,2.19-4.89,4.89s2.19,4.89,4.89,4.89,4.89-2.19,4.89-4.89-2.19-4.89-4.89-4.89Z"/>
    <path class="cls-2" d="M214.27,395.08c-2.7,0-4.89,2.19-4.89,4.89s2.19,4.89,4.89,4.89,4.89-2.19,4.89-4.89-2.19-4.89-4.89-4.89Z"/>
    <path class="cls-2" d="M256.15,395.08c-2.7,0-4.89,2.19-4.89,4.89s2.19,4.89,4.89,4.89,4.89-2.19,4.89-4.89-2.19-4.89-4.89-4.89Z"/>
    <path class="cls-2" d="M298.03,395.08c-2.7,0-4.89,2.19-4.89,4.89s2.19,4.89,4.89,4.89,4.89-2.19,4.89-4.89-2.19-4.89-4.89-4.89Z"/>
    <path class="cls-2" d="M339.9,395.08c-2.7,0-4.89,2.19-4.89,4.89s2.19,4.89,4.89,4.89,4.89-2.19,4.89-4.89-2.19-4.89-4.89-4.89Z"/>
    <path class="cls-2" d="M381.78,395.08c-2.7,0-4.89,2.19-4.89,4.89s2.19,4.89,4.89,4.89,4.89-2.19,4.89-4.89-2.19-4.89-4.89-4.89Z"/>
    <path class="cls-2" d="M423.65,395.08c-2.7,0-4.89,2.19-4.89,4.89s2.19,4.89,4.89,4.89,4.89-2.19,4.89-4.89-2.19-4.89-4.89-4.89Z"/>
    <path class="cls-2" d="M465.53,395.08c-2.7,0-4.89,2.19-4.89,4.89s2.19,4.89,4.89,4.89,4.89-2.19,4.89-4.89-2.19-4.89-4.89-4.89Z"/>
    <path class="cls-2" d="M507.4,395.08c-2.7,0-4.89,2.19-4.89,4.89s2.19,4.89,4.89,4.89,4.89-2.19,4.89-4.89-2.19-4.89-4.89-4.89Z"/>
    <path class="cls-2" d="M549.28,395.08c-2.7,0-4.89,2.19-4.89,4.89s2.19,4.89,4.89,4.89,4.89-2.19,4.89-4.89-2.19-4.89-4.89-4.89Z"/>
    <path class="cls-2" d="M591.16,395.08c-2.7,0-4.89,2.19-4.89,4.89s2.19,4.89,4.89,4.89,4.89-2.19,4.89-4.89-2.19-4.89-4.89-4.89Z"/>
    <path class="cls-2" d="M25.83,370.31c-2.7,0-4.89,2.19-4.89,4.89s2.19,4.89,4.89,4.89,4.89-2.19,4.89-4.89-2.19-4.89-4.89-4.89Z"/>
    <circle class="cls-2" cx="67.71" cy="375.21" r="4.89"/>
    <circle class="cls-2" cx="109.58" cy="375.21" r="4.89"/>
    <circle class="cls-2" cx="151.46" cy="375.21" r="4.89"/>
    <circle class="cls-2" cx="193.34" cy="375.21" r="4.89"/>
    <circle class="cls-2" cx="235.21" cy="375.21" r="4.89"/>
    <circle class="cls-2" cx="277.09" cy="375.21" r="4.89"/>
    <path class="cls-2" d="M318.96,370.31c-2.7,0-4.89,2.19-4.89,4.89s2.19,4.89,4.89,4.89,4.89-2.19,4.89-4.89-2.19-4.89-4.89-4.89Z"/>
    <path class="cls-2" d="M360.84,370.31c-2.7,0-4.89,2.19-4.89,4.89s2.19,4.89,4.89,4.89,4.89-2.19,4.89-4.89-2.19-4.89-4.89-4.89Z"/>
    <path class="cls-2" d="M402.72,370.31c-2.7,0-4.89,2.19-4.89,4.89s2.19,4.89,4.89,4.89,4.89-2.19,4.89-4.89-2.19-4.89-4.89-4.89Z"/>
    <path class="cls-2" d="M444.59,370.31c-2.7,0-4.89,2.19-4.89,4.89s2.19,4.89,4.89,4.89,4.89-2.19,4.89-4.89-2.19-4.89-4.89-4.89Z"/>
    <path class="cls-2" d="M486.47,370.31c-2.7,0-4.89,2.19-4.89,4.89s2.19,4.89,4.89,4.89,4.89-2.19,4.89-4.89-2.19-4.89-4.89-4.89Z"/>
    <path class="cls-2" d="M528.34,370.31c-2.7,0-4.89,2.19-4.89,4.89s2.19,4.89,4.89,4.89,4.89-2.19,4.89-4.89-2.19-4.89-4.89-4.89Z"/>
    <path class="cls-2" d="M570.22,370.31c-2.7,0-4.89,2.19-4.89,4.89s2.19,4.89,4.89,4.89,4.89-2.19,4.89-4.89-2.19-4.89-4.89-4.89Z"/>
    <path class="cls-2" d="M612.09,370.31c-2.7,0-4.89,2.19-4.89,4.89s2.19,4.89,4.89,4.89,4.89-2.19,4.89-4.89-2.19-4.89-4.89-4.89Z"/>
    <path class="cls-2" d="M4.89,345.69c-2.7,0-4.89,2.19-4.89,4.89s2.19,4.89,4.89,4.89,4.89-2.19,4.89-4.89-2.19-4.89-4.89-4.89Z"/>
    <path class="cls-2" d="M46.77,345.69c-2.7,0-4.89,2.19-4.89,4.89s2.19,4.89,4.89,4.89,4.89-2.19,4.89-4.89-2.19-4.89-4.89-4.89Z"/>
    <path class="cls-2" d="M88.65,345.69c-2.7,0-4.89,2.19-4.89,4.89s2.19,4.89,4.89,4.89,4.89-2.19,4.89-4.89-2.19-4.89-4.89-4.89Z"/>
    <path class="cls-2" d="M130.52,345.69c-2.7,0-4.89,2.19-4.89,4.89s2.19,4.89,4.89,4.89,4.89-2.19,4.89-4.89-2.19-4.89-4.89-4.89Z"/>
    <path class="cls-2" d="M172.4,345.69c-2.7,0-4.89,2.19-4.89,4.89s2.19,4.89,4.89,4.89,4.89-2.19,4.89-4.89-2.19-4.89-4.89-4.89Z"/>
    <path class="cls-2" d="M214.27,345.69c-2.7,0-4.89,2.19-4.89,4.89s2.19,4.89,4.89,4.89,4.89-2.19,4.89-4.89-2.19-4.89-4.89-4.89Z"/>
    <path class="cls-2" d="M256.15,345.69c-2.7,0-4.89,2.19-4.89,4.89s2.19,4.89,4.89,4.89,4.89-2.19,4.89-4.89-2.19-4.89-4.89-4.89Z"/>
    <path class="cls-2" d="M298.03,345.69c-2.7,0-4.89,2.19-4.89,4.89s2.19,4.89,4.89,4.89,4.89-2.19,4.89-4.89-2.19-4.89-4.89-4.89Z"/>
    <path class="cls-2" d="M339.9,345.69c-2.7,0-4.89,2.19-4.89,4.89s2.19,4.89,4.89,4.89,4.89-2.19,4.89-4.89-2.19-4.89-4.89-4.89Z"/>
    <path class="cls-2" d="M381.78,345.69c-2.7,0-4.89,2.19-4.89,4.89s2.19,4.89,4.89,4.89,4.89-2.19,4.89-4.89-2.19-4.89-4.89-4.89Z"/>
    <path class="cls-2" d="M423.65,345.69c-2.7,0-4.89,2.19-4.89,4.89s2.19,4.89,4.89,4.89,4.89-2.19,4.89-4.89-2.19-4.89-4.89-4.89Z"/>
    <path class="cls-2" d="M465.53,345.69c-2.7,0-4.89,2.19-4.89,4.89s2.19,4.89,4.89,4.89,4.89-2.19,4.89-4.89-2.19-4.89-4.89-4.89Z"/>
    <path class="cls-2" d="M507.4,345.69c-2.7,0-4.89,2.19-4.89,4.89s2.19,4.89,4.89,4.89,4.89-2.19,4.89-4.89-2.19-4.89-4.89-4.89Z"/>
    <path class="cls-2" d="M549.28,345.69c-2.7,0-4.89,2.19-4.89,4.89s2.19,4.89,4.89,4.89,4.89-2.19,4.89-4.89-2.19-4.89-4.89-4.89Z"/>
    <path class="cls-2" d="M591.16,345.69c-2.7,0-4.89,2.19-4.89,4.89s2.19,4.89,4.89,4.89,4.89-2.19,4.89-4.89-2.19-4.89-4.89-4.89Z"/>
    <path class="cls-2" d="M25.83,320.93c-2.7,0-4.89,2.19-4.89,4.89s2.19,4.89,4.89,4.89,4.89-2.19,4.89-4.89-2.19-4.89-4.89-4.89Z"/>
    <circle class="cls-2" cx="67.71" cy="325.82" r="4.89"/>
    <circle class="cls-2" cx="109.58" cy="325.82" r="4.89"/>
    <circle class="cls-2" cx="151.46" cy="325.82" r="4.89"/>
    <circle class="cls-2" cx="193.34" cy="325.82" r="4.89"/>
    <circle class="cls-2" cx="235.21" cy="325.82" r="4.89"/>
    <circle class="cls-2" cx="277.09" cy="325.82" r="4.89"/>
    <path class="cls-2" d="M318.96,320.93c-2.7,0-4.89,2.19-4.89,4.89s2.19,4.89,4.89,4.89,4.89-2.19,4.89-4.89-2.19-4.89-4.89-4.89Z"/>
    <path class="cls-2" d="M360.84,320.93c-2.7,0-4.89,2.19-4.89,4.89s2.19,4.89,4.89,4.89,4.89-2.19,4.89-4.89-2.19-4.89-4.89-4.89Z"/>
    <path class="cls-2" d="M402.72,320.93c-2.7,0-4.89,2.19-4.89,4.89s2.19,4.89,4.89,4.89,4.89-2.19,4.89-4.89-2.19-4.89-4.89-4.89Z"/>
    <path class="cls-2" d="M444.59,320.93c-2.7,0-4.89,2.19-4.89,4.89s2.19,4.89,4.89,4.89,4.89-2.19,4.89-4.89-2.19-4.89-4.89-4.89Z"/>
    <path class="cls-2" d="M486.47,320.93c-2.7,0-4.89,2.19-4.89,4.89s2.19,4.89,4.89,4.89,4.89-2.19,4.89-4.89-2.19-4.89-4.89-4.89Z"/>
    <path class="cls-2" d="M528.34,320.93c-2.7,0-4.89,2.19-4.89,4.89s2.19,4.89,4.89,4.89,4.89-2.19,4.89-4.89-2.19-4.89-4.89-4.89Z"/>
    <path class="cls-2" d="M570.22,320.93c-2.7,0-4.89,2.19-4.89,4.89s2.19,4.89,4.89,4.89,4.89-2.19,4.89-4.89-2.19-4.89-4.89-4.89Z"/>
    <path class="cls-2" d="M612.09,320.93c-2.7,0-4.89,2.19-4.89,4.89s2.19,4.89,4.89,4.89,4.89-2.19,4.89-4.89-2.19-4.89-4.89-4.89Z"/>
    <path class="cls-2" d="M4.89,296.31c-2.7,0-4.89,2.19-4.89,4.89s2.19,4.89,4.89,4.89,4.89-2.19,4.89-4.89-2.19-4.89-4.89-4.89Z"/>
    <path class="cls-2" d="M46.77,296.31c-2.7,0-4.89,2.19-4.89,4.89s2.19,4.89,4.89,4.89,4.89-2.19,4.89-4.89-2.19-4.89-4.89-4.89Z"/>
    <path class="cls-2" d="M88.65,296.31c-2.7,0-4.89,2.19-4.89,4.89s2.19,4.89,4.89,4.89,4.89-2.19,4.89-4.89-2.19-4.89-4.89-4.89Z"/>
    <path class="cls-2" d="M130.52,296.31c-2.7,0-4.89,2.19-4.89,4.89s2.19,4.89,4.89,4.89,4.89-2.19,4.89-4.89-2.19-4.89-4.89-4.89Z"/>
    <path class="cls-2" d="M172.4,296.31c-2.7,0-4.89,2.19-4.89,4.89s2.19,4.89,4.89,4.89,4.89-2.19,4.89-4.89-2.19-4.89-4.89-4.89Z"/>
    <path class="cls-2" d="M214.27,296.31c-2.7,0-4.89,2.19-4.89,4.89s2.19,4.89,4.89,4.89,4.89-2.19,4.89-4.89-2.19-4.89-4.89-4.89Z"/>
    <path class="cls-2" d="M256.15,296.31c-2.7,0-4.89,2.19-4.89,4.89s2.19,4.89,4.89,4.89,4.89-2.19,4.89-4.89-2.19-4.89-4.89-4.89Z"/>
    <path class="cls-2" d="M298.03,296.31c-2.7,0-4.89,2.19-4.89,4.89s2.19,4.89,4.89,4.89,4.89-2.19,4.89-4.89-2.19-4.89-4.89-4.89Z"/>
    <path class="cls-2" d="M339.9,296.31c-2.7,0-4.89,2.19-4.89,4.89s2.19,4.89,4.89,4.89,4.89-2.19,4.89-4.89-2.19-4.89-4.89-4.89Z"/>
    <path class="cls-2" d="M381.78,296.31c-2.7,0-4.89,2.19-4.89,4.89s2.19,4.89,4.89,4.89,4.89-2.19,4.89-4.89-2.19-4.89-4.89-4.89Z"/>
    <path class="cls-2" d="M423.65,296.31c-2.7,0-4.89,2.19-4.89,4.89s2.19,4.89,4.89,4.89,4.89-2.19,4.89-4.89-2.19-4.89-4.89-4.89Z"/>
    <path class="cls-2" d="M465.53,296.31c-2.7,0-4.89,2.19-4.89,4.89s2.19,4.89,4.89,4.89,4.89-2.19,4.89-4.89-2.19-4.89-4.89-4.89Z"/>
    <path class="cls-2" d="M507.4,296.31c-2.7,0-4.89,2.19-4.89,4.89s2.19,4.89,4.89,4.89,4.89-2.19,4.89-4.89-2.19-4.89-4.89-4.89Z"/>
    <path class="cls-2" d="M549.28,296.31c-2.7,0-4.89,2.19-4.89,4.89s2.19,4.89,4.89,4.89,4.89-2.19,4.89-4.89-2.19-4.89-4.89-4.89Z"/>
    <path class="cls-2" d="M591.16,296.31c-2.7,0-4.89,2.19-4.89,4.89s2.19,4.89,4.89,4.89,4.89-2.19,4.89-4.89-2.19-4.89-4.89-4.89Z"/>
    <path class="cls-2" d="M25.83,271.54c-2.7,0-4.89,2.19-4.89,4.89s2.19,4.89,4.89,4.89,4.89-2.19,4.89-4.89-2.19-4.89-4.89-4.89Z"/>
    <path class="cls-2" d="M67.71,271.54c-2.7,0-4.89,2.19-4.89,4.89s2.19,4.89,4.89,4.89,4.89-2.19,4.89-4.89-2.19-4.89-4.89-4.89Z"/>
    <path class="cls-2" d="M109.58,271.54c-2.7,0-4.89,2.19-4.89,4.89s2.19,4.89,4.89,4.89,4.89-2.19,4.89-4.89-2.19-4.89-4.89-4.89Z"/>
    <path class="cls-2" d="M151.46,271.54c-2.7,0-4.89,2.19-4.89,4.89s2.19,4.89,4.89,4.89,4.89-2.19,4.89-4.89-2.19-4.89-4.89-4.89Z"/>
    <path class="cls-2" d="M193.34,271.54c-2.7,0-4.89,2.19-4.89,4.89s2.19,4.89,4.89,4.89,4.89-2.19,4.89-4.89-2.19-4.89-4.89-4.89Z"/>
    <path class="cls-2" d="M235.21,271.54c-2.7,0-4.89,2.19-4.89,4.89s2.19,4.89,4.89,4.89,4.89-2.19,4.89-4.89-2.19-4.89-4.89-4.89Z"/>
    <path class="cls-2" d="M277.09,271.54c-2.7,0-4.89,2.19-4.89,4.89s2.19,4.89,4.89,4.89,4.89-2.19,4.89-4.89-2.19-4.89-4.89-4.89Z"/>
    <path class="cls-2" d="M318.96,271.54c-2.7,0-4.89,2.19-4.89,4.89s2.19,4.89,4.89,4.89,4.89-2.19,4.89-4.89-2.19-4.89-4.89-4.89Z"/>
    <path class="cls-2" d="M360.84,271.54c-2.7,0-4.89,2.19-4.89,4.89s2.19,4.89,4.89,4.89,4.89-2.19,4.89-4.89-2.19-4.89-4.89-4.89Z"/>
    <path class="cls-2" d="M402.72,271.54c-2.7,0-4.89,2.19-4.89,4.89s2.19,4.89,4.89,4.89,4.89-2.19,4.89-4.89-2.19-4.89-4.89-4.89Z"/>
    <path class="cls-2" d="M444.59,271.54c-2.7,0-4.89,2.19-4.89,4.89s2.19,4.89,4.89,4.89,4.89-2.19,4.89-4.89-2.19-4.89-4.89-4.89Z"/>
    <path class="cls-2" d="M486.47,271.54c-2.7,0-4.89,2.19-4.89,4.89s2.19,4.89,4.89,4.89,4.89-2.19,4.89-4.89-2.19-4.89-4.89-4.89Z"/>
    <path class="cls-2" d="M528.34,271.54c-2.7,0-4.89,2.19-4.89,4.89s2.19,4.89,4.89,4.89,4.89-2.19,4.89-4.89-2.19-4.89-4.89-4.89Z"/>
    <path class="cls-2" d="M570.22,271.54c-2.7,0-4.89,2.19-4.89,4.89s2.19,4.89,4.89,4.89,4.89-2.19,4.89-4.89-2.19-4.89-4.89-4.89Z"/>
    <path class="cls-2" d="M612.09,271.54c-2.7,0-4.89,2.19-4.89,4.89s2.19,4.89,4.89,4.89,4.89-2.19,4.89-4.89-2.19-4.89-4.89-4.89Z"/>
    <circle class="cls-2" cx="46.77" cy="251.82" r="4.89"/>
    <circle class="cls-2" cx="88.65" cy="251.82" r="4.89"/>
    <circle class="cls-2" cx="130.52" cy="251.82" r="4.89"/>
    <path class="cls-2" d="M172.4,246.92c-2.7,0-4.89,2.19-4.89,4.89s2.19,4.89,4.89,4.89,4.89-2.19,4.89-4.89-2.19-4.89-4.89-4.89Z"/>
    <path class="cls-2" d="M214.27,246.92c-2.7,0-4.89,2.19-4.89,4.89s2.19,4.89,4.89,4.89,4.89-2.19,4.89-4.89-2.19-4.89-4.89-4.89Z"/>
    <path class="cls-2" d="M256.15,246.92c-2.7,0-4.89,2.19-4.89,4.89s2.19,4.89,4.89,4.89,4.89-2.19,4.89-4.89-2.19-4.89-4.89-4.89Z"/>
    <path class="cls-2" d="M298.03,246.92c-2.7,0-4.89,2.19-4.89,4.89s2.19,4.89,4.89,4.89,4.89-2.19,4.89-4.89-2.19-4.89-4.89-4.89Z"/>
    <circle class="cls-2" cx="339.9" cy="251.82" r="4.89"/>
    <circle class="cls-2" cx="381.78" cy="251.82" r="4.89"/>
    <circle class="cls-2" cx="423.65" cy="251.82" r="4.89"/>
    <path class="cls-2" d="M465.53,246.92c-2.7,0-4.89,2.19-4.89,4.89s2.19,4.89,4.89,4.89,4.89-2.19,4.89-4.89-2.19-4.89-4.89-4.89Z"/>
    <path class="cls-2" d="M507.4,246.92c-2.7,0-4.89,2.19-4.89,4.89s2.19,4.89,4.89,4.89,4.89-2.19,4.89-4.89-2.19-4.89-4.89-4.89Z"/>
    <path class="cls-2" d="M549.28,246.92c-2.7,0-4.89,2.19-4.89,4.89s2.19,4.89,4.89,4.89,4.89-2.19,4.89-4.89-2.19-4.89-4.89-4.89Z"/>
    <path class="cls-2" d="M591.16,246.92c-2.7,0-4.89,2.19-4.89,4.89s2.19,4.89,4.89,4.89,4.89-2.19,4.89-4.89-2.19-4.89-4.89-4.89Z"/>
    <path class="cls-2" d="M30.73,227.05c0-2.59-2.02-4.7-4.58-4.86-1.28,2.77-2.52,5.56-3.74,8.36.88.86,2.09,1.4,3.42,1.4,2.7,0,4.89-2.19,4.89-4.89Z"/>
    <path class="cls-2" d="M67.71,222.16c-2.7,0-4.89,2.19-4.89,4.89s2.19,4.89,4.89,4.89,4.89-2.19,4.89-4.89-2.19-4.89-4.89-4.89Z"/>
    <path class="cls-2" d="M109.58,222.16c-2.7,0-4.89,2.19-4.89,4.89s2.19,4.89,4.89,4.89,4.89-2.19,4.89-4.89-2.19-4.89-4.89-4.89Z"/>
    <path class="cls-2" d="M151.46,222.16c-2.7,0-4.89,2.19-4.89,4.89s2.19,4.89,4.89,4.89,4.89-2.19,4.89-4.89-2.19-4.89-4.89-4.89Z"/>
    <path class="cls-2" d="M193.34,222.16c-2.7,0-4.89,2.19-4.89,4.89s2.19,4.89,4.89,4.89,4.89-2.19,4.89-4.89-2.19-4.89-4.89-4.89Z"/>
    <path class="cls-2" d="M235.21,222.16c-2.7,0-4.89,2.19-4.89,4.89s2.19,4.89,4.89,4.89,4.89-2.19,4.89-4.89-2.19-4.89-4.89-4.89Z"/>
    <path class="cls-2" d="M277.09,222.16c-2.7,0-4.89,2.19-4.89,4.89s2.19,4.89,4.89,4.89,4.89-2.19,4.89-4.89-2.19-4.89-4.89-4.89Z"/>
    <path class="cls-2" d="M318.96,222.16c-2.7,0-4.89,2.19-4.89,4.89s2.19,4.89,4.89,4.89,4.89-2.19,4.89-4.89-2.19-4.89-4.89-4.89Z"/>
    <path class="cls-2" d="M360.84,222.16c-2.7,0-4.89,2.19-4.89,4.89s2.19,4.89,4.89,4.89,4.89-2.19,4.89-4.89-2.19-4.89-4.89-4.89Z"/>
    <path class="cls-2" d="M402.72,222.16c-2.7,0-4.89,2.19-4.89,4.89s2.19,4.89,4.89,4.89,4.89-2.19,4.89-4.89-2.19-4.89-4.89-4.89Z"/>
    <path class="cls-2" d="M444.59,222.16c-2.7,0-4.89,2.19-4.89,4.89s2.19,4.89,4.89,4.89,4.89-2.19,4.89-4.89-2.19-4.89-4.89-4.89Z"/>
    <path class="cls-2" d="M486.47,222.16c-2.7,0-4.89,2.19-4.89,4.89s2.19,4.89,4.89,4.89,4.89-2.19,4.89-4.89-2.19-4.89-4.89-4.89Z"/>
    <path class="cls-2" d="M528.34,222.16c-2.7,0-4.89,2.19-4.89,4.89s2.19,4.89,4.89,4.89,4.89-2.19,4.89-4.89-2.19-4.89-4.89-4.89Z"/>
    <path class="cls-2" d="M570.22,222.16c-2.7,0-4.89,2.19-4.89,4.89s2.19,4.89,4.89,4.89,4.89-2.19,4.89-4.89-2.19-4.89-4.89-4.89Z"/>
    <path class="cls-2" d="M612.09,222.16c-2.7,0-4.89,2.19-4.89,4.89s2.19,4.89,4.89,4.89,4.89-2.19,4.89-4.89-2.19-4.89-4.89-4.89Z"/>
    <path class="cls-2" d="M46.77,197.54c-2.7,0-4.89,2.19-4.89,4.89s2.19,4.89,4.89,4.89,4.89-2.19,4.89-4.89-2.19-4.89-4.89-4.89Z"/>
    <path class="cls-2" d="M88.65,197.54c-2.7,0-4.89,2.19-4.89,4.89s2.19,4.89,4.89,4.89,4.89-2.19,4.89-4.89-2.19-4.89-4.89-4.89Z"/>
    <path class="cls-2" d="M130.52,197.54c-2.7,0-4.89,2.19-4.89,4.89s2.19,4.89,4.89,4.89,4.89-2.19,4.89-4.89-2.19-4.89-4.89-4.89Z"/>
    <path class="cls-2" d="M172.4,197.54c-2.7,0-4.89,2.19-4.89,4.89s2.19,4.89,4.89,4.89,4.89-2.19,4.89-4.89-2.19-4.89-4.89-4.89Z"/>
    <path class="cls-2" d="M214.27,197.54c-2.7,0-4.89,2.19-4.89,4.89s2.19,4.89,4.89,4.89,4.89-2.19,4.89-4.89-2.19-4.89-4.89-4.89Z"/>
    <path class="cls-2" d="M256.15,197.54c-2.7,0-4.89,2.19-4.89,4.89s2.19,4.89,4.89,4.89,4.89-2.19,4.89-4.89-2.19-4.89-4.89-4.89Z"/>
    <path class="cls-2" d="M298.03,197.54c-2.7,0-4.89,2.19-4.89,4.89s2.19,4.89,4.89,4.89,4.89-2.19,4.89-4.89-2.19-4.89-4.89-4.89Z"/>
    <path class="cls-2" d="M339.9,197.54c-2.7,0-4.89,2.19-4.89,4.89s2.19,4.89,4.89,4.89,4.89-2.19,4.89-4.89-2.19-4.89-4.89-4.89Z"/>
    <path class="cls-2" d="M381.78,197.54c-2.7,0-4.89,2.19-4.89,4.89s2.19,4.89,4.89,4.89,4.89-2.19,4.89-4.89-2.19-4.89-4.89-4.89Z"/>
    <path class="cls-2" d="M423.65,197.54c-2.7,0-4.89,2.19-4.89,4.89s2.19,4.89,4.89,4.89,4.89-2.19,4.89-4.89-2.19-4.89-4.89-4.89Z"/>
    <path class="cls-2" d="M465.53,197.54c-2.7,0-4.89,2.19-4.89,4.89s2.19,4.89,4.89,4.89,4.89-2.19,4.89-4.89-2.19-4.89-4.89-4.89Z"/>
    <path class="cls-2" d="M507.4,197.54c-2.7,0-4.89,2.19-4.89,4.89s2.19,4.89,4.89,4.89,4.89-2.19,4.89-4.89-2.19-4.89-4.89-4.89Z"/>
    <path class="cls-2" d="M549.28,197.54c-2.7,0-4.89,2.19-4.89,4.89s2.19,4.89,4.89,4.89,4.89-2.19,4.89-4.89-2.19-4.89-4.89-4.89Z"/>
    <path class="cls-2" d="M591.16,197.54c-2.7,0-4.89,2.19-4.89,4.89s2.19,4.89,4.89,4.89,4.89-2.19,4.89-4.89-2.19-4.89-4.89-4.89Z"/>
    <path class="cls-2" d="M67.71,172.77c-2.7,0-4.89,2.19-4.89,4.89s2.19,4.89,4.89,4.89,4.89-2.19,4.89-4.89-2.19-4.89-4.89-4.89Z"/>
    <path class="cls-2" d="M109.58,172.77c-2.7,0-4.89,2.19-4.89,4.89s2.19,4.89,4.89,4.89,4.89-2.19,4.89-4.89-2.19-4.89-4.89-4.89Z"/>
    <path class="cls-2" d="M151.46,172.77c-2.7,0-4.89,2.19-4.89,4.89s2.19,4.89,4.89,4.89,4.89-2.19,4.89-4.89-2.19-4.89-4.89-4.89Z"/>
    <path class="cls-2" d="M193.34,172.77c-2.7,0-4.89,2.19-4.89,4.89s2.19,4.89,4.89,4.89,4.89-2.19,4.89-4.89-2.19-4.89-4.89-4.89Z"/>
    <path class="cls-2" d="M235.21,172.77c-2.7,0-4.89,2.19-4.89,4.89s2.19,4.89,4.89,4.89,4.89-2.19,4.89-4.89-2.19-4.89-4.89-4.89Z"/>
    <path class="cls-2" d="M277.09,172.77c-2.7,0-4.89,2.19-4.89,4.89s2.19,4.89,4.89,4.89,4.89-2.19,4.89-4.89-2.19-4.89-4.89-4.89Z"/>
    <path class="cls-2" d="M318.96,172.77c-2.7,0-4.89,2.19-4.89,4.89s2.19,4.89,4.89,4.89,4.89-2.19,4.89-4.89-2.19-4.89-4.89-4.89Z"/>
    <path class="cls-2" d="M360.84,172.77c-2.7,0-4.89,2.19-4.89,4.89s2.19,4.89,4.89,4.89,4.89-2.19,4.89-4.89-2.19-4.89-4.89-4.89Z"/>
    <path class="cls-2" d="M402.72,172.77c-2.7,0-4.89,2.19-4.89,4.89s2.19,4.89,4.89,4.89,4.89-2.19,4.89-4.89-2.19-4.89-4.89-4.89Z"/>
    <path class="cls-2" d="M444.59,172.77c-2.7,0-4.89,2.19-4.89,4.89s2.19,4.89,4.89,4.89,4.89-2.19,4.89-4.89-2.19-4.89-4.89-4.89Z"/>
    <path class="cls-2" d="M486.47,172.77c-2.7,0-4.89,2.19-4.89,4.89s2.19,4.89,4.89,4.89,4.89-2.19,4.89-4.89-2.19-4.89-4.89-4.89Z"/>
    <path class="cls-2" d="M528.34,172.77c-2.7,0-4.89,2.19-4.89,4.89s2.19,4.89,4.89,4.89,4.89-2.19,4.89-4.89-2.19-4.89-4.89-4.89Z"/>
    <path class="cls-2" d="M570.22,172.77c-2.7,0-4.89,2.19-4.89,4.89s2.19,4.89,4.89,4.89,4.89-2.19,4.89-4.89-2.19-4.89-4.89-4.89Z"/>
    <path class="cls-2" d="M612.09,172.77c-2.7,0-4.89,2.19-4.89,4.89s2.19,4.89,4.89,4.89,4.89-2.19,4.89-4.89-2.19-4.89-4.89-4.89Z"/>
    <path class="cls-2" d="M88.65,148.15c-2.7,0-4.89,2.19-4.89,4.89s2.19,4.89,4.89,4.89,4.89-2.19,4.89-4.89-2.19-4.89-4.89-4.89Z"/>
    <path class="cls-2" d="M130.52,148.15c-2.7,0-4.89,2.19-4.89,4.89s2.19,4.89,4.89,4.89,4.89-2.19,4.89-4.89-2.19-4.89-4.89-4.89Z"/>
    <path class="cls-2" d="M172.4,148.15c-2.7,0-4.89,2.19-4.89,4.89s2.19,4.89,4.89,4.89,4.89-2.19,4.89-4.89-2.19-4.89-4.89-4.89Z"/>
    <path class="cls-2" d="M214.27,148.15c-2.7,0-4.89,2.19-4.89,4.89s2.19,4.89,4.89,4.89,4.89-2.19,4.89-4.89-2.19-4.89-4.89-4.89Z"/>
    <path class="cls-2" d="M256.15,148.15c-2.7,0-4.89,2.19-4.89,4.89s2.19,4.89,4.89,4.89,4.89-2.19,4.89-4.89-2.19-4.89-4.89-4.89Z"/>
    <path class="cls-2" d="M298.03,148.15c-2.7,0-4.89,2.19-4.89,4.89s2.19,4.89,4.89,4.89,4.89-2.19,4.89-4.89-2.19-4.89-4.89-4.89Z"/>
    <path class="cls-2" d="M339.9,148.15c-2.7,0-4.89,2.19-4.89,4.89s2.19,4.89,4.89,4.89,4.89-2.19,4.89-4.89-2.19-4.89-4.89-4.89Z"/>
    <path class="cls-2" d="M381.78,148.15c-2.7,0-4.89,2.19-4.89,4.89s2.19,4.89,4.89,4.89,4.89-2.19,4.89-4.89-2.19-4.89-4.89-4.89Z"/>
    <path class="cls-2" d="M423.65,148.15c-2.7,0-4.89,2.19-4.89,4.89s2.19,4.89,4.89,4.89,4.89-2.19,4.89-4.89-2.19-4.89-4.89-4.89Z"/>
    <path class="cls-2" d="M465.53,148.15c-2.7,0-4.89,2.19-4.89,4.89s2.19,4.89,4.89,4.89,4.89-2.19,4.89-4.89-2.19-4.89-4.89-4.89Z"/>
    <path class="cls-2" d="M507.4,148.15c-2.7,0-4.89,2.19-4.89,4.89s2.19,4.89,4.89,4.89,4.89-2.19,4.89-4.89-2.19-4.89-4.89-4.89Z"/>
    <path class="cls-2" d="M549.28,148.15c-2.7,0-4.89,2.19-4.89,4.89s2.19,4.89,4.89,4.89,4.89-2.19,4.89-4.89-2.19-4.89-4.89-4.89Z"/>
    <path class="cls-2" d="M591.16,148.15c-2.7,0-4.89,2.19-4.89,4.89s2.19,4.89,4.89,4.89,4.89-2.19,4.89-4.89-2.19-4.89-4.89-4.89Z"/>
    <path class="cls-2" d="M109.58,123.39c-2.7,0-4.89,2.19-4.89,4.89s2.19,4.89,4.89,4.89,4.89-2.19,4.89-4.89-2.19-4.89-4.89-4.89Z"/>
    <path class="cls-2" d="M151.46,123.39c-2.7,0-4.89,2.19-4.89,4.89s2.19,4.89,4.89,4.89,4.89-2.19,4.89-4.89-2.19-4.89-4.89-4.89Z"/>
    <path class="cls-2" d="M193.34,123.39c-2.7,0-4.89,2.19-4.89,4.89s2.19,4.89,4.89,4.89,4.89-2.19,4.89-4.89-2.19-4.89-4.89-4.89Z"/>
    <path class="cls-2" d="M235.21,123.39c-2.7,0-4.89,2.19-4.89,4.89s2.19,4.89,4.89,4.89,4.89-2.19,4.89-4.89-2.19-4.89-4.89-4.89Z"/>
    <path class="cls-2" d="M277.09,123.39c-2.7,0-4.89,2.19-4.89,4.89s2.19,4.89,4.89,4.89,4.89-2.19,4.89-4.89-2.19-4.89-4.89-4.89Z"/>
    <path class="cls-2" d="M318.96,123.39c-2.7,0-4.89,2.19-4.89,4.89s2.19,4.89,4.89,4.89,4.89-2.19,4.89-4.89-2.19-4.89-4.89-4.89Z"/>
    <path class="cls-2" d="M360.84,123.39c-2.7,0-4.89,2.19-4.89,4.89s2.19,4.89,4.89,4.89,4.89-2.19,4.89-4.89-2.19-4.89-4.89-4.89Z"/>
    <path class="cls-2" d="M402.72,123.39c-2.7,0-4.89,2.19-4.89,4.89s2.19,4.89,4.89,4.89,4.89-2.19,4.89-4.89-2.19-4.89-4.89-4.89Z"/>
    <path class="cls-2" d="M444.59,123.39c-2.7,0-4.89,2.19-4.89,4.89s2.19,4.89,4.89,4.89,4.89-2.19,4.89-4.89-2.19-4.89-4.89-4.89Z"/>
    <path class="cls-2" d="M486.47,123.39c-2.7,0-4.89,2.19-4.89,4.89s2.19,4.89,4.89,4.89,4.89-2.19,4.89-4.89-2.19-4.89-4.89-4.89Z"/>
    <path class="cls-2" d="M528.34,123.39c-2.7,0-4.89,2.19-4.89,4.89s2.19,4.89,4.89,4.89,4.89-2.19,4.89-4.89-2.19-4.89-4.89-4.89Z"/>
    <path class="cls-2" d="M570.22,123.39c-2.7,0-4.89,2.19-4.89,4.89s2.19,4.89,4.89,4.89,4.89-2.19,4.89-4.89-2.19-4.89-4.89-4.89Z"/>
    <path class="cls-2" d="M612.09,123.39c-2.7,0-4.89,2.19-4.89,4.89s2.19,4.89,4.89,4.89,4.89-2.19,4.89-4.89-2.19-4.89-4.89-4.89Z"/>
    <path class="cls-2" d="M130.52,98.77c-2.7,0-4.89,2.19-4.89,4.89s2.19,4.89,4.89,4.89,4.89-2.19,4.89-4.89-2.19-4.89-4.89-4.89Z"/>
    <path class="cls-2" d="M172.4,98.77c-2.7,0-4.89,2.19-4.89,4.89s2.19,4.89,4.89,4.89,4.89-2.19,4.89-4.89-2.19-4.89-4.89-4.89Z"/>
    <path class="cls-2" d="M214.27,98.77c-2.7,0-4.89,2.19-4.89,4.89s2.19,4.89,4.89,4.89,4.89-2.19,4.89-4.89-2.19-4.89-4.89-4.89Z"/>
    <path class="cls-2" d="M256.15,98.77c-2.7,0-4.89,2.19-4.89,4.89s2.19,4.89,4.89,4.89,4.89-2.19,4.89-4.89-2.19-4.89-4.89-4.89Z"/>
    <path class="cls-2" d="M298.03,98.77c-2.7,0-4.89,2.19-4.89,4.89s2.19,4.89,4.89,4.89,4.89-2.19,4.89-4.89-2.19-4.89-4.89-4.89Z"/>
    <path class="cls-2" d="M339.9,98.77c-2.7,0-4.89,2.19-4.89,4.89s2.19,4.89,4.89,4.89,4.89-2.19,4.89-4.89-2.19-4.89-4.89-4.89Z"/>
    <path class="cls-2" d="M381.78,98.77c-2.7,0-4.89,2.19-4.89,4.89s2.19,4.89,4.89,4.89,4.89-2.19,4.89-4.89-2.19-4.89-4.89-4.89Z"/>
    <path class="cls-2" d="M423.65,98.77c-2.7,0-4.89,2.19-4.89,4.89s2.19,4.89,4.89,4.89,4.89-2.19,4.89-4.89-2.19-4.89-4.89-4.89Z"/>
    <path class="cls-2" d="M465.53,98.77c-2.7,0-4.89,2.19-4.89,4.89s2.19,4.89,4.89,4.89,4.89-2.19,4.89-4.89-2.19-4.89-4.89-4.89Z"/>
    <path class="cls-2" d="M507.4,98.77c-2.7,0-4.89,2.19-4.89,4.89s2.19,4.89,4.89,4.89,4.89-2.19,4.89-4.89-2.19-4.89-4.89-4.89Z"/>
    <path class="cls-2" d="M549.28,98.77c-2.7,0-4.89,2.19-4.89,4.89s2.19,4.89,4.89,4.89,4.89-2.19,4.89-4.89-2.19-4.89-4.89-4.89Z"/>
    <path class="cls-2" d="M591.16,98.77c-2.7,0-4.89,2.19-4.89,4.89s2.19,4.89,4.89,4.89,4.89-2.19,4.89-4.89-2.19-4.89-4.89-4.89Z"/>
    <circle class="cls-2" cx="151.46" cy="78.9" r="4.89"/>
    <circle class="cls-2" cx="193.34" cy="78.9" r="4.89"/>
    <circle class="cls-2" cx="235.21" cy="78.9" r="4.89"/>
    <circle class="cls-2" cx="277.09" cy="78.9" r="4.89"/>
    <path class="cls-2" d="M318.96,74c-2.7,0-4.89,2.19-4.89,4.89s2.19,4.89,4.89,4.89,4.89-2.19,4.89-4.89-2.19-4.89-4.89-4.89Z"/>
    <path class="cls-2" d="M360.84,74c-2.7,0-4.89,2.19-4.89,4.89s2.19,4.89,4.89,4.89,4.89-2.19,4.89-4.89-2.19-4.89-4.89-4.89Z"/>
    <path class="cls-2" d="M402.72,74c-2.7,0-4.89,2.19-4.89,4.89s2.19,4.89,4.89,4.89,4.89-2.19,4.89-4.89-2.19-4.89-4.89-4.89Z"/>
    <path class="cls-2" d="M444.59,74c-2.7,0-4.89,2.19-4.89,4.89s2.19,4.89,4.89,4.89,4.89-2.19,4.89-4.89-2.19-4.89-4.89-4.89Z"/>
    <path class="cls-2" d="M486.47,74c-2.7,0-4.89,2.19-4.89,4.89s2.19,4.89,4.89,4.89,4.89-2.19,4.89-4.89-2.19-4.89-4.89-4.89Z"/>
    <path class="cls-2" d="M528.34,74c-2.7,0-4.89,2.19-4.89,4.89s2.19,4.89,4.89,4.89,4.89-2.19,4.89-4.89-2.19-4.89-4.89-4.89Z"/>
    <path class="cls-2" d="M570.22,74c-2.7,0-4.89,2.19-4.89,4.89s2.19,4.89,4.89,4.89,4.89-2.19,4.89-4.89-2.19-4.89-4.89-4.89Z"/>
    <path class="cls-2" d="M612.09,74c-2.7,0-4.89,2.19-4.89,4.89s2.19,4.89,4.89,4.89,4.89-2.19,4.89-4.89-2.19-4.89-4.89-4.89Z"/>
    <path class="cls-2" d="M172.4,59.17c2.7,0,4.89-2.19,4.89-4.89,0-1.63-.8-3.06-2.03-3.95-2.56,1.66-5.11,3.34-7.63,5.05.5,2.17,2.44,3.8,4.76,3.8Z"/>
    <path class="cls-2" d="M214.27,49.38c-2.7,0-4.89,2.19-4.89,4.89s2.19,4.89,4.89,4.89,4.89-2.19,4.89-4.89-2.19-4.89-4.89-4.89Z"/>
    <path class="cls-2" d="M256.15,49.38c-2.7,0-4.89,2.19-4.89,4.89s2.19,4.89,4.89,4.89,4.89-2.19,4.89-4.89-2.19-4.89-4.89-4.89Z"/>
    <path class="cls-2" d="M298.03,49.38c-2.7,0-4.89,2.19-4.89,4.89s2.19,4.89,4.89,4.89,4.89-2.19,4.89-4.89-2.19-4.89-4.89-4.89Z"/>
    <path class="cls-2" d="M339.9,49.38c-2.7,0-4.89,2.19-4.89,4.89s2.19,4.89,4.89,4.89,4.89-2.19,4.89-4.89-2.19-4.89-4.89-4.89Z"/>
    <path class="cls-2" d="M381.78,49.38c-2.7,0-4.89,2.19-4.89,4.89s2.19,4.89,4.89,4.89,4.89-2.19,4.89-4.89-2.19-4.89-4.89-4.89Z"/>
    <path class="cls-2" d="M423.65,49.38c-2.7,0-4.89,2.19-4.89,4.89s2.19,4.89,4.89,4.89,4.89-2.19,4.89-4.89-2.19-4.89-4.89-4.89Z"/>
    <path class="cls-2" d="M465.53,49.38c-2.7,0-4.89,2.19-4.89,4.89s2.19,4.89,4.89,4.89,4.89-2.19,4.89-4.89-2.19-4.89-4.89-4.89Z"/>
    <path class="cls-2" d="M507.4,49.38c-2.7,0-4.89,2.19-4.89,4.89s2.19,4.89,4.89,4.89,4.89-2.19,4.89-4.89-2.19-4.89-4.89-4.89Z"/>
    <path class="cls-2" d="M549.28,49.38c-2.7,0-4.89,2.19-4.89,4.89s2.19,4.89,4.89,4.89,4.89-2.19,4.89-4.89-2.19-4.89-4.89-4.89Z"/>
    <path class="cls-2" d="M591.16,49.38c-2.7,0-4.89,2.19-4.89,4.89s2.19,4.89,4.89,4.89,4.89-2.19,4.89-4.89-2.19-4.89-4.89-4.89Z"/>
    <circle class="cls-2" cx="235.21" cy="29.51" r="4.89"/>
    <circle class="cls-2" cx="277.09" cy="29.51" r="4.89"/>
    <path class="cls-2" d="M318.96,24.62c-2.7,0-4.89,2.19-4.89,4.89s2.19,4.89,4.89,4.89,4.89-2.19,4.89-4.89-2.19-4.89-4.89-4.89Z"/>
    <path class="cls-2" d="M360.84,24.62c-2.7,0-4.89,2.19-4.89,4.89s2.19,4.89,4.89,4.89,4.89-2.19,4.89-4.89-2.19-4.89-4.89-4.89Z"/>
    <path class="cls-2" d="M402.72,24.62c-2.7,0-4.89,2.19-4.89,4.89s2.19,4.89,4.89,4.89,4.89-2.19,4.89-4.89-2.19-4.89-4.89-4.89Z"/>
    <path class="cls-2" d="M444.59,24.62c-2.7,0-4.89,2.19-4.89,4.89s2.19,4.89,4.89,4.89,4.89-2.19,4.89-4.89-2.19-4.89-4.89-4.89Z"/>
    <path class="cls-2" d="M486.47,24.62c-2.7,0-4.89,2.19-4.89,4.89s2.19,4.89,4.89,4.89,4.89-2.19,4.89-4.89-2.19-4.89-4.89-4.89Z"/>
    <path class="cls-2" d="M528.34,24.62c-2.7,0-4.89,2.19-4.89,4.89s2.19,4.89,4.89,4.89,4.89-2.19,4.89-4.89-2.19-4.89-4.89-4.89Z"/>
    <path class="cls-2" d="M570.22,24.62c-2.7,0-4.89,2.19-4.89,4.89s2.19,4.89,4.89,4.89,4.89-2.19,4.89-4.89-2.19-4.89-4.89-4.89Z"/>
    <path class="cls-2" d="M256.72,9.73c.76-.09,1.47-.34,2.09-.74-.69.25-1.39.48-2.09.74Z"/>
    <path class="cls-2" d="M298.03,0c-2.7,0-4.89,2.19-4.89,4.89s2.19,4.89,4.89,4.89,4.89-2.19,4.89-4.89-2.19-4.89-4.89-4.89Z"/>
    <path class="cls-2" d="M339.9,0c-2.7,0-4.89,2.19-4.89,4.89s2.19,4.89,4.89,4.89,4.89-2.19,4.89-4.89-2.19-4.89-4.89-4.89Z"/>
    <path class="cls-2" d="M381.78,0c-2.7,0-4.89,2.19-4.89,4.89s2.19,4.89,4.89,4.89,4.89-2.19,4.89-4.89-2.19-4.89-4.89-4.89Z"/>
    <path class="cls-2" d="M423.65,0c-2.7,0-4.89,2.19-4.89,4.89s2.19,4.89,4.89,4.89,4.89-2.19,4.89-4.89-2.19-4.89-4.89-4.89Z"/>
    <path class="cls-2" d="M465.53,0c-2.7,0-4.89,2.19-4.89,4.89s2.19,4.89,4.89,4.89,4.89-2.19,4.89-4.89-2.19-4.89-4.89-4.89Z"/>
    <path class="cls-2" d="M502.51,4.89c0,2.7,2.19,4.89,4.89,4.89s4.89-2.19,4.89-4.89c0-1.31-.52-2.49-1.35-3.36-1.58-.46-3.16-.92-4.74-1.37-2.12.54-3.69,2.44-3.69,4.73Z"/>
    <circle class="cls-2" cx="636.36" cy="696.28" r="4.89"/>
    <path class="cls-2" d="M657.3,666.62c-2.7,0-4.89,2.19-4.89,4.89s2.19,4.89,4.89,4.89,4.89-2.19,4.89-4.89-2.19-4.89-4.89-4.89Z"/>
    <path class="cls-2" d="M694.38,670.57c1.17-1.25,2.35-2.49,3.5-3.76-1.77.49-3.14,1.93-3.5,3.76Z"/>
    <circle class="cls-2" cx="636.36" cy="646.9" r="4.89"/>
    <path class="cls-2" d="M678.24,642c-2.7,0-4.89,2.19-4.89,4.89s2.19,4.89,4.89,4.89,4.89-2.19,4.89-4.89-2.19-4.89-4.89-4.89Z"/>
    <path class="cls-2" d="M715.27,646.35c1.07-1.34,2.13-2.68,3.18-4.04-1.71.62-2.97,2.17-3.18,4.04Z"/>
    <path class="cls-2" d="M657.3,617.23c-2.7,0-4.89,2.19-4.89,4.89s2.19,4.89,4.89,4.89,4.89-2.19,4.89-4.89-2.19-4.89-4.89-4.89Z"/>
    <path class="cls-2" d="M699.18,627.02c2.7,0,4.89-2.19,4.89-4.89s-2.19-4.89-4.89-4.89-4.89,2.19-4.89,4.89,2.19,4.89,4.89,4.89Z"/>
    <circle class="cls-2" cx="636.36" cy="597.51" r="4.89"/>
    <path class="cls-2" d="M678.24,592.62c-2.7,0-4.89,2.19-4.89,4.89s2.19,4.89,4.89,4.89,4.89-2.19,4.89-4.89-2.19-4.89-4.89-4.89Z"/>
    <path class="cls-2" d="M720.11,602.41c2.7,0,4.89-2.19,4.89-4.89s-2.19-4.89-4.89-4.89-4.89,2.19-4.89,4.89,2.19,4.89,4.89,4.89Z"/>
    <path class="cls-2" d="M657.3,567.85c-2.7,0-4.89,2.19-4.89,4.89s2.19,4.89,4.89,4.89,4.89-2.19,4.89-4.89-2.19-4.89-4.89-4.89Z"/>
    <path class="cls-2" d="M699.18,577.64c2.7,0,4.89-2.19,4.89-4.89s-2.19-4.89-4.89-4.89-4.89,2.19-4.89,4.89,2.19,4.89,4.89,4.89Z"/>
    <path class="cls-2" d="M741.05,577.64c2.7,0,4.89-2.19,4.89-4.89s-2.19-4.89-4.89-4.89-4.89,2.19-4.89,4.89,2.19,4.89,4.89,4.89Z"/>
    <circle class="cls-2" cx="636.36" cy="548.13" r="4.89"/>
    <path class="cls-2" d="M678.24,543.23c-2.7,0-4.89,2.19-4.89,4.89s2.19,4.89,4.89,4.89,4.89-2.19,4.89-4.89-2.19-4.89-4.89-4.89Z"/>
    <path class="cls-2" d="M720.11,553.02c2.7,0,4.89-2.19,4.89-4.89s-2.19-4.89-4.89-4.89-4.89,2.19-4.89,4.89,2.19,4.89,4.89,4.89Z"/>
    <path class="cls-2" d="M761.99,553.02c2.7,0,4.89-2.19,4.89-4.89s-2.19-4.89-4.89-4.89-4.89,2.19-4.89,4.89,2.19,4.89,4.89,4.89Z"/>
    <path class="cls-2" d="M657.3,518.46c-2.7,0-4.89,2.19-4.89,4.89s2.19,4.89,4.89,4.89,4.89-2.19,4.89-4.89-2.19-4.89-4.89-4.89Z"/>
    <path class="cls-2" d="M699.18,528.25c2.7,0,4.89-2.19,4.89-4.89s-2.19-4.89-4.89-4.89-4.89,2.19-4.89,4.89,2.19,4.89,4.89,4.89Z"/>
    <path class="cls-2" d="M741.05,528.25c2.7,0,4.89-2.19,4.89-4.89s-2.19-4.89-4.89-4.89-4.89,2.19-4.89,4.89,2.19,4.89,4.89,4.89Z"/>
    <path class="cls-2" d="M778.03,523.36c0,1.98,1.18,3.67,2.86,4.44,1.07-3.05,2.11-6.12,3.11-9.21-.35-.08-.71-.13-1.08-.13-2.7,0-4.89,2.19-4.89,4.89Z"/>
    <path class="cls-2" d="M636.36,493.85c-2.7,0-4.89,2.19-4.89,4.89s2.19,4.89,4.89,4.89,4.89-2.19,4.89-4.89-2.19-4.89-4.89-4.89Z"/>
    <path class="cls-2" d="M678.24,493.85c-2.7,0-4.89,2.19-4.89,4.89s2.19,4.89,4.89,4.89,4.89-2.19,4.89-4.89-2.19-4.89-4.89-4.89Z"/>
    <path class="cls-2" d="M720.11,503.64c2.7,0,4.89-2.19,4.89-4.89s-2.19-4.89-4.89-4.89-4.89,2.19-4.89,4.89,2.19,4.89,4.89,4.89Z"/>
    <path class="cls-2" d="M761.99,503.64c2.7,0,4.89-2.19,4.89-4.89s-2.19-4.89-4.89-4.89-4.89,2.19-4.89,4.89,2.19,4.89,4.89,4.89Z"/>
    <path class="cls-2" d="M657.3,469.08c-2.7,0-4.89,2.19-4.89,4.89s2.19,4.89,4.89,4.89,4.89-2.19,4.89-4.89-2.19-4.89-4.89-4.89Z"/>
    <path class="cls-2" d="M699.18,478.87c2.7,0,4.89-2.19,4.89-4.89s-2.19-4.89-4.89-4.89-4.89,2.19-4.89,4.89,2.19,4.89,4.89,4.89Z"/>
    <path class="cls-2" d="M741.05,478.87c2.7,0,4.89-2.19,4.89-4.89s-2.19-4.89-4.89-4.89-4.89,2.19-4.89,4.89,2.19,4.89,4.89,4.89Z"/>
    <path class="cls-2" d="M782.93,478.87c2.7,0,4.89-2.19,4.89-4.89s-2.19-4.89-4.89-4.89-4.89,2.19-4.89,4.89,2.19,4.89,4.89,4.89Z"/>
    <path class="cls-2" d="M636.36,444.46c-2.7,0-4.89,2.19-4.89,4.89s2.19,4.89,4.89,4.89,4.89-2.19,4.89-4.89-2.19-4.89-4.89-4.89Z"/>
    <path class="cls-2" d="M678.24,444.46c-2.7,0-4.89,2.19-4.89,4.89s2.19,4.89,4.89,4.89,4.89-2.19,4.89-4.89-2.19-4.89-4.89-4.89Z"/>
    <path class="cls-2" d="M720.11,454.25c2.7,0,4.89-2.19,4.89-4.89s-2.19-4.89-4.89-4.89-4.89,2.19-4.89,4.89,2.19,4.89,4.89,4.89Z"/>
    <path class="cls-2" d="M761.99,454.25c2.7,0,4.89-2.19,4.89-4.89s-2.19-4.89-4.89-4.89-4.89,2.19-4.89,4.89,2.19,4.89,4.89,4.89Z"/>
    <path class="cls-2" d="M798.97,449.36c0,.85.24,1.65.62,2.35.28-1.93.56-3.87.81-5.81-.89.89-1.44,2.11-1.44,3.46Z"/>
    <path class="cls-2" d="M657.3,419.7c-2.7,0-4.89,2.19-4.89,4.89s2.19,4.89,4.89,4.89,4.89-2.19,4.89-4.89-2.19-4.89-4.89-4.89Z"/>
    <path class="cls-2" d="M699.18,429.48c2.7,0,4.89-2.19,4.89-4.89s-2.19-4.89-4.89-4.89-4.89,2.19-4.89,4.89,2.19,4.89,4.89,4.89Z"/>
    <path class="cls-2" d="M741.05,429.48c2.7,0,4.89-2.19,4.89-4.89s-2.19-4.89-4.89-4.89-4.89,2.19-4.89,4.89,2.19,4.89,4.89,4.89Z"/>
    <path class="cls-2" d="M782.93,429.48c2.7,0,4.89-2.19,4.89-4.89s-2.19-4.89-4.89-4.89-4.89,2.19-4.89,4.89,2.19,4.89,4.89,4.89Z"/>
    <path class="cls-2" d="M636.36,395.08c-2.7,0-4.89,2.19-4.89,4.89s2.19,4.89,4.89,4.89,4.89-2.19,4.89-4.89-2.19-4.89-4.89-4.89Z"/>
    <path class="cls-2" d="M678.24,395.08c-2.7,0-4.89,2.19-4.89,4.89s2.19,4.89,4.89,4.89,4.89-2.19,4.89-4.89-2.19-4.89-4.89-4.89Z"/>
    <path class="cls-2" d="M720.11,404.87c2.7,0,4.89-2.19,4.89-4.89s-2.19-4.89-4.89-4.89-4.89,2.19-4.89,4.89,2.19,4.89,4.89,4.89Z"/>
    <path class="cls-2" d="M761.99,404.87c2.7,0,4.89-2.19,4.89-4.89s-2.19-4.89-4.89-4.89-4.89,2.19-4.89,4.89,2.19,4.89,4.89,4.89Z"/>
    <path class="cls-2" d="M798.97,399.97c0,2.64,2.09,4.77,4.7,4.87.1-3.25.15-6.5.17-9.77-2.69.02-4.86,2.2-4.86,4.89Z"/>
    <path class="cls-2" d="M657.3,370.31c-2.7,0-4.89,2.19-4.89,4.89s2.19,4.89,4.89,4.89,4.89-2.19,4.89-4.89-2.19-4.89-4.89-4.89Z"/>
    <path class="cls-2" d="M699.18,380.1c2.7,0,4.89-2.19,4.89-4.89s-2.19-4.89-4.89-4.89-4.89,2.19-4.89,4.89,2.19,4.89,4.89,4.89Z"/>
    <path class="cls-2" d="M741.05,380.1c2.7,0,4.89-2.19,4.89-4.89s-2.19-4.89-4.89-4.89-4.89,2.19-4.89,4.89,2.19,4.89,4.89,4.89Z"/>
    <path class="cls-2" d="M782.93,380.1c2.7,0,4.89-2.19,4.89-4.89s-2.19-4.89-4.89-4.89-4.89,2.19-4.89,4.89,2.19,4.89,4.89,4.89Z"/>
    <path class="cls-2" d="M636.36,345.69c-2.7,0-4.89,2.19-4.89,4.89s2.19,4.89,4.89,4.89,4.89-2.19,4.89-4.89-2.19-4.89-4.89-4.89Z"/>
    <path class="cls-2" d="M678.24,345.69c-2.7,0-4.89,2.19-4.89,4.89s2.19,4.89,4.89,4.89,4.89-2.19,4.89-4.89-2.19-4.89-4.89-4.89Z"/>
    <path class="cls-2" d="M720.11,355.48c2.7,0,4.89-2.19,4.89-4.89s-2.19-4.89-4.89-4.89-4.89,2.19-4.89,4.89,2.19,4.89,4.89,4.89Z"/>
    <path class="cls-2" d="M761.99,355.48c2.7,0,4.89-2.19,4.89-4.89s-2.19-4.89-4.89-4.89-4.89,2.19-4.89,4.89,2.19,4.89,4.89,4.89Z"/>
    <path class="cls-2" d="M798.97,350.59c0,2.09,1.32,3.86,3.16,4.56-.27-2.9-.56-5.8-.89-8.68-1.36.87-2.27,2.38-2.27,4.12Z"/>
    <path class="cls-2" d="M657.3,320.93c-2.7,0-4.89,2.19-4.89,4.89s2.19,4.89,4.89,4.89,4.89-2.19,4.89-4.89-2.19-4.89-4.89-4.89Z"/>
    <path class="cls-2" d="M699.18,330.72c2.7,0,4.89-2.19,4.89-4.89s-2.19-4.89-4.89-4.89-4.89,2.19-4.89,4.89,2.19,4.89,4.89,4.89Z"/>
    <path class="cls-2" d="M741.05,330.72c2.7,0,4.89-2.19,4.89-4.89s-2.19-4.89-4.89-4.89-4.89,2.19-4.89,4.89,2.19,4.89,4.89,4.89Z"/>
    <path class="cls-2" d="M782.93,330.72c2.7,0,4.89-2.19,4.89-4.89s-2.19-4.89-4.89-4.89-4.89,2.19-4.89,4.89,2.19,4.89,4.89,4.89Z"/>
    <path class="cls-2" d="M636.36,296.31c-2.7,0-4.89,2.19-4.89,4.89s2.19,4.89,4.89,4.89,4.89-2.19,4.89-4.89-2.19-4.89-4.89-4.89Z"/>
    <path class="cls-2" d="M678.24,296.31c-2.7,0-4.89,2.19-4.89,4.89s2.19,4.89,4.89,4.89,4.89-2.19,4.89-4.89-2.19-4.89-4.89-4.89Z"/>
    <path class="cls-2" d="M720.11,306.1c2.7,0,4.89-2.19,4.89-4.89s-2.19-4.89-4.89-4.89-4.89,2.19-4.89,4.89,2.19,4.89,4.89,4.89Z"/>
    <path class="cls-2" d="M761.99,306.1c2.7,0,4.89-2.19,4.89-4.89s-2.19-4.89-4.89-4.89-4.89,2.19-4.89,4.89,2.19,4.89,4.89,4.89Z"/>
    <path class="cls-2" d="M657.3,271.54c-2.7,0-4.89,2.19-4.89,4.89s2.19,4.89,4.89,4.89,4.89-2.19,4.89-4.89-2.19-4.89-4.89-4.89Z"/>
    <path class="cls-2" d="M699.18,281.33c2.7,0,4.89-2.19,4.89-4.89s-2.19-4.89-4.89-4.89-4.89,2.19-4.89,4.89,2.19,4.89,4.89,4.89Z"/>
    <path class="cls-2" d="M741.05,281.33c2.7,0,4.89-2.19,4.89-4.89s-2.19-4.89-4.89-4.89-4.89,2.19-4.89,4.89,2.19,4.89,4.89,4.89Z"/>
    <path class="cls-2" d="M778.03,276.44c0,2.7,2.19,4.89,4.89,4.89,2.11,0,3.9-1.35,4.58-3.22-.54-1.86-1.09-3.72-1.66-5.57-.82-.61-1.82-.99-2.92-.99-2.7,0-4.89,2.19-4.89,4.89Z"/>
    <circle class="cls-2" cx="636.36" cy="251.82" r="4.89"/>
    <path class="cls-2" d="M678.24,246.92c-2.7,0-4.89,2.19-4.89,4.89s2.19,4.89,4.89,4.89,4.89-2.19,4.89-4.89-2.19-4.89-4.89-4.89Z"/>
    <path class="cls-2" d="M720.11,256.71c2.7,0,4.89-2.19,4.89-4.89s-2.19-4.89-4.89-4.89-4.89,2.19-4.89,4.89,2.19,4.89,4.89,4.89Z"/>
    <path class="cls-2" d="M761.99,256.71c2.7,0,4.89-2.19,4.89-4.89s-2.19-4.89-4.89-4.89-4.89,2.19-4.89,4.89,2.19,4.89,4.89,4.89Z"/>
    <path class="cls-2" d="M657.3,222.16c-2.7,0-4.89,2.19-4.89,4.89s2.19,4.89,4.89,4.89,4.89-2.19,4.89-4.89-2.19-4.89-4.89-4.89Z"/>
    <path class="cls-2" d="M699.18,231.95c2.7,0,4.89-2.19,4.89-4.89s-2.19-4.89-4.89-4.89-4.89,2.19-4.89,4.89,2.19,4.89,4.89,4.89Z"/>
    <path class="cls-2" d="M741.05,231.95c2.7,0,4.89-2.19,4.89-4.89s-2.19-4.89-4.89-4.89-4.89,2.19-4.89,4.89,2.19,4.89,4.89,4.89Z"/>
    <path class="cls-2" d="M636.36,197.54c-2.7,0-4.89,2.19-4.89,4.89s2.19,4.89,4.89,4.89,4.89-2.19,4.89-4.89-2.19-4.89-4.89-4.89Z"/>
    <path class="cls-2" d="M678.24,197.54c-2.7,0-4.89,2.19-4.89,4.89s2.19,4.89,4.89,4.89,4.89-2.19,4.89-4.89-2.19-4.89-4.89-4.89Z"/>
    <path class="cls-2" d="M720.11,207.33c2.7,0,4.89-2.19,4.89-4.89s-2.19-4.89-4.89-4.89-4.89,2.19-4.89,4.89,2.19,4.89,4.89,4.89Z"/>
    <path class="cls-2" d="M758.68,206.02c-.5-.96-1.01-1.92-1.52-2.87.17,1.13.71,2.13,1.52,2.87Z"/>
    <path class="cls-2" d="M657.3,172.77c-2.7,0-4.89,2.19-4.89,4.89s2.19,4.89,4.89,4.89,4.89-2.19,4.89-4.89-2.19-4.89-4.89-4.89Z"/>
    <path class="cls-2" d="M699.18,182.56c2.7,0,4.89-2.19,4.89-4.89s-2.19-4.89-4.89-4.89-4.89,2.19-4.89,4.89,2.19,4.89,4.89,4.89Z"/>
    <path class="cls-2" d="M736.16,177.67c0,2.7,2.19,4.89,4.89,4.89,1.42,0,2.68-.61,3.58-1.57-1.63-2.68-3.29-5.34-4.99-7.98-2.01.61-3.49,2.45-3.49,4.66Z"/>
    <path class="cls-2" d="M636.36,148.15c-2.7,0-4.89,2.19-4.89,4.89s2.19,4.89,4.89,4.89,4.89-2.19,4.89-4.89-2.19-4.89-4.89-4.89Z"/>
    <path class="cls-2" d="M678.24,148.15c-2.7,0-4.89,2.19-4.89,4.89s2.19,4.89,4.89,4.89,4.89-2.19,4.89-4.89-2.19-4.89-4.89-4.89Z"/>
    <path class="cls-2" d="M715.22,153.05c0,2.7,2.19,4.89,4.89,4.89s4.89-2.19,4.89-4.89c0-.63-.13-1.23-.35-1.78-.48-.65-.95-1.31-1.43-1.96-.85-.71-1.93-1.15-3.12-1.15-2.7,0-4.89,2.19-4.89,4.89Z"/>
    <path class="cls-2" d="M657.3,123.39c-2.7,0-4.89,2.19-4.89,4.89s2.19,4.89,4.89,4.89,4.89-2.19,4.89-4.89-2.19-4.89-4.89-4.89Z"/>
    <path class="cls-2" d="M699.18,133.18c2.7,0,4.89-2.19,4.89-4.89s-2.19-4.89-4.89-4.89-4.89,2.19-4.89,4.89,2.19,4.89,4.89,4.89Z"/>
    <path class="cls-2" d="M636.36,98.77c-2.7,0-4.89,2.19-4.89,4.89s2.19,4.89,4.89,4.89,4.89-2.19,4.89-4.89-2.19-4.89-4.89-4.89Z"/>
    <path class="cls-2" d="M673.34,103.66c0,2.7,2.19,4.89,4.89,4.89s4.89-2.19,4.89-4.89c0-.18-.03-.36-.05-.53-1.46-1.45-2.94-2.89-4.42-4.32-.14-.01-.27-.04-.42-.04-2.7,0-4.89,2.19-4.89,4.89Z"/>
    <path class="cls-2" d="M657.3,83.79c1.28,0,2.44-.5,3.31-1.31-2.45-2.09-4.93-4.16-7.44-6.19-.48.76-.76,1.64-.76,2.6,0,2.7,2.19,4.89,4.89,4.89Z"/>
  </g>
</svg>