<?xml version="1.0" encoding="UTF-8"?>
<svg id="Layer_1" data-name="Layer 1" xmlns="http://www.w3.org/2000/svg" version="1.1" viewBox="0 0 666.74 666.81">
  <defs>
    <style>
      .cls-1 {
        fill: none;
        stroke: #fff;
        stroke-miterlimit: 10;
        stroke-width: .5px;
      }
    </style>
  </defs>
  <g>
    <path class="cls-1" d="M.25.33h333.12c8.33,0,16.66,0,24.96,0,33.58-.1,65.8-.1,97.35,0,7.81,0,15.51,0,23.09,0h187.71"/>
    <path class="cls-1" d="M.25,35.39h283.32c8.24,0,16.53,0,24.83,0,63-2.95,124.52-2.95,189.96-.04,6.44.03,12.75.04,18.95.04h149.18"/>
    <path class="cls-1" d="M.25,70.46h258.73c8.14.03,16.35.05,24.64.14,78.99-.07,161.01-5.93,238.92-.22,7.03.08,13.86.08,20.5.08h123.44"/>
    <path class="cls-1" d="M.25,105.52h234.52c8.21.01,16.39.23,24.54.59,94.52-.44,191.19-3.37,283.59-.72,12.27.14,23.85.13,34.66.13h88.93"/>
    <path class="cls-1" d="M.25,140.59h234.52c6.77-.8,13.47-1.12,20.11-1.03,46.22,1.27,87.23,10.06,134.1,15.92,58.58,8.79,114.24-8.79,173.4-14.87,12.5-.01,24.16-.01,34.82-.01h69.29"/>
    <path class="cls-1" d="M.25,175.65h234.52c6.77-.52,13.47-.58,20.11-.26s13.22.97,19.66,1.66c67.57,1.86,126.16,39.94,190.6,42.86,35.15,0,61.51-29.29,94.09-41.2,5.9-2.08,11.95-3.56,18.27-4.16,6.28-.59,12.82-.31,19.7,1.1h69.29"/>
    <path class="cls-1" d="M.25,210.72h234.52c9.59-.42,18.97-.2,28.21.53,9.24.73,18.3,1.86,27.12,2.98,43.23,2.77,81.31,20.34,119.39,37.92,61.51,26.36,114.24-8.79,165.81-36.68,7.85-2.91,15.91-5.03,24.32-5.96,8.41-.93,17.16-.66,26.4,1.22h40.47"/>
    <path class="cls-1" d="M.25,245.78h234.52c7.99,0,16.07,0,24.21.02,9.61,1.99,19.18,3.84,28.7,5.54,80.8,9.59,162.81,47.67,244.23,25.3,8.97-2.46,17.91-5.66,26.8-9.7,8.89-4.04,17.74-8.94,26.53-14.79,14.65-8.79,26.36-5.86,40.83-6.31,12.69-.05,22.81-.05,29.74-.05h10.68"/>
    <path class="cls-1" d="M.25,280.85h283.32c8.24,0,16.57.04,25.3.52,62.54,20.57,126.99,26.43,190.75,22.32,10.56-.92,21.11-2.13,31.66-3.59,31.65-4.39,63.26-11.08,94.87-19.12,12.61-.12,22.73-.12,29.66-.12h10.68"/>
    <path class="cls-1" d="M.25,315.91h308.16c8.31,0,16.65.01,25.15.18,61.28,9.28,119.87,23.92,184.31,15.14,38.08-5.86,70.3-17.58,108.21-15.26,8.44-.05,15.77-.05,21.76-.05h18.65"/>
    <path class="cls-1" d="M.25,350.98h74.7c9.16,0,18.98,0,29.32.01,6.93.12,13.93.23,20.96.31,7.04.08,14.11.14,21.2.17,34.56.26,69.72.26,104.29-.48,6.79,0,13.62,0,20.5,0h62.13c8.33,0,16.66,0,25.02.03,83.32,9.51,165.34,6.58,246.83.16,12.49-.19,23.53-.2,32.64-.2h28.63"/>
    <path class="cls-1" d="M.25,386.04h40.47c10.21.1,20.38.15,30.53.16,89.25-5.18,174.2.68,262.12-.16h31.19c10.37,0,20.7,0,30.99.03,60.8.81,125.24.81,186.94.05,12.71-.08,24.36-.08,34.64-.08h49.35"/>
    <path class="cls-1" d="M.25,421.11s10.41,0,28.44.03c9.08-.2,18.13-.47,27.12-.95,101.77-18.67,201.36-4.02,302.53.92h68.83c7.22,0,14.39,0,21.47,0,31.15.92,66.3.92,98.37,0h119.48"/>
    <path class="cls-1" d="M.25,456.17s6.66,0,18.49.03c10.37-.78,20.72-1.73,30.93-3.24,99.11-33.85,204.56-22.14,308.24,3.06,8.7.13,17.01.15,25.25.15h283.32"/>
    <path class="cls-1" d="M.25,491.24s6.66,0,18.44.03c8.99,1.15,17.69,1.09,26.08-.21,33.71-7.52,60.07-30.95,95.22-39.74,76.16-17.58,140.6,23.43,214.1,33.94,10.09,1.74,19.69,3.73,29.07,5.96,8.25,0,16.45,0,24.59.01h258.73"/>
    <path class="cls-1" d="M.25,526.3s6.66,0,18.59.01c6.12.29,12.36.69,18.54.84,41.11,6.18,58.68-37.75,93.83-49.47,29.29-11.72,61.51-5.86,90.81,2.93,43.94,14.65,84.95,32.22,132.29,38.35,9.98,2.14,19.44,4.49,28.81,6.97,8.3.34,16.51.35,24.65.36h258.73"/>
    <path class="cls-1" d="M.25,561.37h18.65c6,0,13.32,0,21.74-.01,17.33-4.58,40.76,4.21,52.48-10.44,73.23-84.95,175.75-8.79,261.92,1.8,9.36,2.44,18.7,5.19,28.08,8.25,8.29.36,16.49.38,24.63.41h258.73"/>
    <path class="cls-1" d="M.25,596.43h40.47c8.49,0,18.15,0,28.8-.11,8.96-1.46,17.75,1.46,23.6-1.46,73.23-58.58,155.25-23.43,233.44-10.43,9.71,1.79,19.12,3.65,28.54,5.68,9.33,1.9,18.67,3.96,28.05,6.15,8.24.14,16.45.16,24.59.18h258.73"/>
    <path class="cls-1" d="M.25,631.5h69.29c10.66,0,22.32,0,34.81-.02,9.22-2.38,18.47-4.37,27.72-6.13,46.01-7.06,92.87-9.99,139.61-4.76,9.42.6,18.74,1.31,28.03,2.08,9.21.78,18.38,1.62,27.5,2.48,9.28.79,18.59,1.71,27.91,2.77s18.67,2.24,28.05,3.56c8.24,0,16.45.02,24.59.02h258.73"/>
    <path class="cls-1" d="M.25,666.56h123.44c6.64-.02,13.47-.03,20.47-.07,18-.33,35.89-.58,53.73-.76,17.83-.17,35.63-.24,53.41-.24,17.78,0,35.56.09,53.38.26,17.82.17,35.69.43,53.66.78,8.31.01,16.59.02,24.84.03h283.32"/>
  </g>
  <g>
    <line class="cls-1" x1=".25" y1="666.56" x2=".25" y2=".33"/>
    <path class="cls-1" d="M35.32,666.56v-69.29c0-10.66,0-22.32-.03-34.81-.25-17.52-.41-34.73-.5-51.84-.09-17.11-.09-34.09,0-51.14.08-17.07.23-34.21.47-51.64.06-8.15.07-16.35.07-24.6V.33"/>
    <path class="cls-1" d="M70.38,666.56v-40.47c0-8.49,0-18.16-.01-28.88-3.6-60.94-3.6-119.52-2.58-180.04.82-19.4,1.69-39.19,2.59-58.76V.33"/>
    <path class="cls-1" d="M105.45,666.56v-10.68c0-6.93,0-17.05-.03-29.9-15.22-80.93-18.15-168.8-3.57-250.15,1.14-9.18,2.3-18.62,3.52-28.1.08-7.14.08-14.29.08-21.42V.33"/>
    <path class="cls-1" d="M140.51,666.56c-1.51-9.39-2.97-18.73-4.37-28.03-16.65-90.53-31.3-184.27-2.47-273.72,2.1-8.78,4.3-17.95,6.77-27.18.07-7.64.07-15.28.07-22.9V.33"/>
    <path class="cls-1" d="M175.58,665.84c.31-8.14,0-16.13-.87-24.01-8.35-61.62-52.28-117.28-43.5-184.65,5.86-43.94,46.87-73.23,44.35-120.61.02-7.29.02-14.58.02-21.85V.33"/>
    <path class="cls-1" d="M210.55,664.19c-.04-10.09-1.04-19.96-2.99-29.79-32.42-86.42-82.21-177.22-6.05-262.17,8.79-5.86,11.72-20.5,9.13-35.67V.33"/>
    <path class="cls-1" d="M245.58,663.36c-2.06-10.37-4.14-20.68-6.52-30.93-34.62-90.3-60.98-189.89,5.99-273.98.53-8.34.66-16.68.66-25.01v-122.32c-.26-35.15-.26-70.3,0-106.7V.33"/>
    <path class="cls-1" d="M280.71,664.26c-1.18-9.28-2.31-18.58-3.35-27.88-1.5-9.27-2.92-18.55-4.71-27.81-35.99-84.02-18.41-168.97,7.83-250.14.29-10.92.29-21.86.29-32.79v-54.33c.34-8.99.6-18,.78-27.02.18-9.02.29-18.07.32-27.21-1.28-55.75-1.28-108.47-1.11-162.68V.33"/>
    <path class="cls-1" d="M315.84,665.84c-.3-9.44-.54-18.88-.74-28.31-.24-9.49-.43-18.97-.63-28.51-19.23-72.75-7.51-148.91,1.15-225.76.21-8.26.22-16.55.22-24.85v-43.69c.96-6.53,1.76-12.94,2.44-19.28.67-6.34,1.22-12.6,1.66-18.87,7.53-88.88-4.19-173.82-4.1-261.83V.33"/>
    <path class="cls-1" d="M350.9,666.56c0-20.12,0-39.97,0-59.65,0-9.84,0-19.63,0-29.39,0-9.76-.07-19.49-.3-29.19-2.63-47.2.3-94.07.3-140.49v-40.54c0-6.81,0-13.64,0-20.47,3.66-8.91,6.68-17.89,9.12-26.93,17.24-105.84-12.06-214.22-9.12-319.57"/>
    <path class="cls-1" d="M385.97,666.56v-69.3c.08-31.7.08-63.92,0-96.07,0-7.31,0-14.76,0-22.34v-72.16c0-8.27,0-16.61.01-24.99.04-13.52.79-26.87,3.73-39.04,2.94-12.17,8.06-23.15,16.79-31.98,11.78-14.6,20.56-32.18,20.56-52.68-5.86-87.88-52.73-166.97-41.1-257.69"/>
    <path class="cls-1" d="M421.03,666.56v-238.12c0-6.82,0-13.69,0-20.61-4.31-22.2,1.59-42.08,10.4-60.81,2.94-6.24,6.2-12.36,9.51-18.39,21.27-29.63,30.06-64.78,24.2-102.86-17.58-79.09-55.66-146.46-44.11-225.47"/>
    <path class="cls-1" d="M456.1,666.56v-217.86c0-6.69,0-13.45,0-20.26-5.69-39.43,11.94-72.1,26.93-105.99,3.75-8.47,7.31-17.02,10.27-25.77,6.99-18.19,9.92-38.69,6.99-56.27-23.43-82.02-55.66-155.25-44.19-240.09"/>
    <path class="cls-1" d="M491.16,666.56v-217.86c0-6.69,0-13.45,0-20.26-4.6-41.96,12.94-79.47,24-119.62,2.21-8.03,4.16-16.17,5.63-24.47,2.93-82.02-38.08-161.11-29.69-243.74.05-12.58.05-22.68.05-29.62V.33"/>
    <path class="cls-1" d="M526.23,666.56v-239.32c6.07-53.87,12.04-107.16,13.5-160.69.25-10.7.32-21.41.12-32.17-1.48-55.48-13.2-108.2-13.66-164.79.02-10.64.03-20.3.03-28.8V.33"/>
    <path class="cls-1" d="M561.29,666.56v-238.12c0-7.62,0-15.31.02-23.03,4.44-62.18,5.78-122.46,3.99-183.01-.26-8.65-.58-17.3-.97-25.97-2.53-23.39-2.53-49.75-3.05-72.67,0-12.18,0-23.72,0-34.51V.33"/>
    <path class="cls-1" d="M596.36,666.56v-270.98c0-7.17,0-14.38.06-21.57.53-60.36,3.46-124.8,0-185.9-.06-6.7-.06-13.24-.06-19.67V.33"/>
    <path class="cls-1" d="M631.42,666.56v-333.12c.68-31.51.68-66.66,0-98.6,0-8,0-15.91,0-23.71V.33"/>
    <line class="cls-1" x1="666.49" y1="666.56" x2="666.49" y2=".33"/>
  </g>
</svg>